<svg width="35" height="35" viewBox="0 0 35 35" fill="none" xmlns="http://www.w3.org/2000/svg">
<path d="M7.48713 3.75C8.86713 3.75 9.98713 4.87 9.98713 6.25V28.75C9.98713 30.13 8.86713 31.25 7.48713 31.25H5.00088C3.61963 31.25 2.50088 30.13 2.50088 28.75V6.25C2.50088 4.87 3.61963 3.75 5.00088 3.75H7.48713ZM16.2371 3.75C17.6171 3.75 18.7371 4.87 18.7371 6.25V28.75C18.7371 30.13 17.6171 31.25 16.2371 31.25H13.7434C12.3621 31.25 11.2434 30.13 11.2434 28.75V6.25C11.2434 4.87 12.3621 3.75 13.7434 3.75H16.2371ZM27.5876 8.179L32.4126 27.5327C32.7464 28.8715 31.9301 30.229 30.5914 30.564L28.1376 31.1752C26.7989 31.509 25.4414 30.694 25.1076 29.354L20.2826 10.0002C19.9476 8.66025 20.7639 7.304 22.1026 6.969L24.5564 6.35775C25.8951 6.02275 27.2526 6.839 27.5876 8.179Z" fill="white"/>
</svg>
