<svg width="51" height="53" viewBox="0 0 51 53" fill="none" xmlns="http://www.w3.org/2000/svg">
<g clip-path="url(#clip0_5_39)">
<mask id="mask0_5_39" style="mask-type:luminance" maskUnits="userSpaceOnUse" x="0" y="0" width="51" height="53">
<path d="M51 0H0V53H51V0Z" fill="white"/>
</mask>
<g mask="url(#mask0_5_39)">
<path d="M33.7482 19.8067C33.7482 21.6361 32.7968 23.1193 31.6232 23.1193C30.4496 23.1193 29.4983 21.6361 29.4983 19.8067C29.4983 17.9773 30.4496 16.4943 31.6232 16.4943C32.7968 16.4943 33.7482 17.9773 33.7482 19.8067Z" fill="white"/>
<path d="M19.1842 23.1193C20.3578 23.1193 21.3092 21.6362 21.3092 19.8067C21.3092 17.9773 20.3578 16.4943 19.1842 16.4943C18.0107 16.4943 17.0593 17.9773 17.0593 19.8067C17.0593 21.6362 18.0107 23.1193 19.1842 23.1193Z" fill="white"/>
<path d="M46.7501 43.555V27.1638C46.7501 14.6009 37.2359 4.41663 25.5 4.41663C13.7639 4.41663 4.24999 14.6009 4.24999 27.1638V43.555C4.24999 46.4751 7.12083 48.3743 9.5608 47.0684C11.5329 46.0127 13.8822 46.1693 15.7168 47.4787C17.7806 48.9514 20.4694 48.9514 22.5334 47.4787L23.2825 46.9438C24.6253 45.9857 26.3747 45.9857 27.7175 46.9438L28.4666 47.4787C30.5308 48.9514 33.2192 48.9514 35.2834 47.4787C37.1178 46.1693 39.467 46.0127 41.4392 47.0684C43.8792 48.3743 46.7501 46.4751 46.7501 43.555Z" stroke="white" stroke-width="1.5"/>
<path d="M51 26.1021H-3.35737V41.6996H51V26.1021Z" fill="#EED9B9"/>
<path d="M9.98385 39.1531V38.985H10.7052V28.6256H9.98385V28.4576H12.3167C12.5725 28.4576 12.8207 28.5034 13.0611 28.5951C13.3067 28.6817 13.5241 28.8217 13.7134 29.0153C13.9078 29.2037 14.0613 29.4507 14.1738 29.7563C14.2864 30.0568 14.3427 30.4235 14.3427 30.8564C14.3427 31.274 14.2941 31.6407 14.1969 31.9565C14.1048 32.2723 13.9794 32.5397 13.8208 32.7587C13.6622 32.9726 13.4883 33.1407 13.299 33.2629C13.1148 33.38 12.9332 33.4539 12.7542 33.4845C12.9434 33.4895 13.143 33.5456 13.3527 33.6525C13.5676 33.7595 13.7697 33.9225 13.959 34.1415C14.1534 34.3554 14.3094 34.6329 14.4271 34.9742C14.5499 35.3103 14.6113 35.7178 14.6113 36.1965C14.6113 36.8332 14.5243 37.3705 14.3503 37.8085C14.1764 38.2465 13.9411 38.5801 13.6443 38.8093C13.3476 39.0385 13.0048 39.1531 12.616 39.1531H9.98385ZM11.6184 38.985H12.4318C12.6365 38.985 12.8283 38.8857 13.0074 38.687C13.1916 38.4884 13.3425 38.1854 13.4602 37.7779C13.5778 37.3654 13.6367 36.8433 13.6367 36.2118C13.6367 35.6006 13.5676 35.1015 13.4295 34.7144C13.2913 34.3274 13.1148 34.0421 12.9 33.8588C12.6902 33.6703 12.4753 33.5761 12.2553 33.5761H11.6184V38.985ZM11.6184 33.4081H12.2553C12.4651 33.4081 12.657 33.3215 12.8309 33.1483C13.0048 32.97 13.143 32.695 13.2453 32.3232C13.3527 31.9463 13.4064 31.4574 13.4064 30.8564C13.4064 30.2911 13.3476 29.848 13.2299 29.5271C13.1174 29.2012 12.9716 28.9694 12.7925 28.8319C12.6135 28.6944 12.4293 28.6256 12.24 28.6256H11.6184V33.4081ZM17.3061 39.3135C16.948 39.3135 16.6461 39.1938 16.4006 38.9544C16.1601 38.7151 15.9632 38.3942 15.8097 37.9918C15.6614 37.5895 15.5539 37.1413 15.4874 36.6473C15.4209 36.1481 15.3877 35.6439 15.3877 35.1346C15.3877 34.4674 15.4363 33.8817 15.5335 33.3775C15.6358 32.8733 15.7714 32.4531 15.9402 32.117C16.1141 31.7808 16.3136 31.5287 16.5387 31.3606C16.7689 31.1926 17.0094 31.1085 17.2601 31.1085C17.5517 31.1085 17.8049 31.2053 18.0198 31.3988C18.2347 31.5924 18.4112 31.8547 18.5493 32.1857C18.6874 32.5117 18.7897 32.8758 18.8562 33.2782C18.9279 33.6754 18.9637 34.0778 18.9637 34.4852C18.9637 34.5667 18.9611 34.6482 18.956 34.7297C18.956 34.8061 18.9535 34.8851 18.9483 34.9665H16.2241V34.7985H18.0198C18.0198 34.0905 17.9993 33.4717 17.9584 32.942C17.9175 32.4124 17.8407 31.9998 17.7282 31.7044C17.6207 31.409 17.4647 31.2613 17.2601 31.2613C17.0657 31.2613 16.8994 31.3988 16.7613 31.6739C16.6231 31.9489 16.5157 32.3614 16.4389 32.9115C16.3673 33.4615 16.3315 34.1516 16.3315 34.9818C16.3315 35.4962 16.3392 36.0004 16.3545 36.4945C16.375 36.9834 16.4185 37.4265 16.485 37.8238C16.5515 38.221 16.6589 38.5368 16.8073 38.7711C16.9557 39.0003 17.1603 39.1149 17.4212 39.1149C17.7896 39.1149 18.0812 39.0105 18.296 38.8016C18.516 38.5877 18.6618 38.3585 18.7335 38.1141L18.8793 38.1981C18.7718 38.5037 18.5877 38.766 18.3267 38.985C18.0658 39.204 17.7256 39.3135 17.3061 39.3135ZM19.572 39.1531V38.985H20.2396V31.3224H19.572V31.1544H21.1605V32.1093C21.1708 32.0482 21.2142 31.9387 21.291 31.7808C21.3677 31.6178 21.4803 31.465 21.6286 31.3224C21.7821 31.1798 21.9714 31.1085 22.1965 31.1085C22.437 31.1085 22.6339 31.2002 22.7874 31.3836C22.946 31.5618 23.0662 31.8012 23.1481 32.1017C23.2299 32.3971 23.2709 32.7205 23.2709 33.0719C23.2709 33.2807 23.2376 33.4463 23.1711 33.5685C23.1046 33.6856 23.0023 33.7442 22.8641 33.7442C22.726 33.7442 22.6237 33.6856 22.5572 33.5685C22.4958 33.4463 22.4651 33.2986 22.4651 33.1254C22.4651 33.0133 22.483 32.9089 22.5188 32.8122C22.5546 32.7154 22.5879 32.6186 22.6186 32.5219C22.6544 32.42 22.6723 32.313 22.6723 32.201C22.6723 31.8903 22.616 31.6637 22.5035 31.5211C22.3909 31.3785 22.2579 31.3072 22.1044 31.3072C21.8998 31.3072 21.7258 31.4065 21.5826 31.6051C21.4445 31.8037 21.3396 32.0431 21.268 32.3232C21.1963 32.5983 21.1605 32.8555 21.1605 33.0948V38.985H21.8665V39.1531H19.572ZM23.9003 39.1531V38.985H24.4758V27.8617H23.9003V27.6936H25.389V38.985H25.9723V39.1531H23.9003ZM28.7056 39.3211C28.4447 39.3211 28.1966 39.2295 27.9613 39.0461C27.7259 38.8577 27.5162 38.5852 27.332 38.2287C27.1529 37.8671 27.0097 37.4265 26.9023 36.907C26.7999 36.3875 26.7488 35.7942 26.7488 35.127C26.7488 34.3987 26.8025 33.7798 26.9099 33.2705C27.0225 32.7561 27.1708 32.3411 27.355 32.0253C27.5392 31.7044 27.749 31.4727 27.9843 31.3301C28.2196 31.1824 28.4601 31.1085 28.7056 31.1085C28.9563 31.1085 29.1993 31.1824 29.4347 31.3301C29.67 31.4727 29.8798 31.7044 30.0639 32.0253C30.2532 32.3411 30.4016 32.7561 30.509 33.2705C30.6216 33.7798 30.6779 34.3987 30.6779 35.127C30.6779 35.7942 30.6241 36.3875 30.5167 36.907C30.4144 37.4265 30.2711 37.8671 30.087 38.2287C29.9028 38.5852 29.693 38.8577 29.4577 39.0461C29.2224 39.2295 28.9717 39.3211 28.7056 39.3211ZM28.7056 39.1683C29.0126 39.1683 29.2556 38.8246 29.4347 38.137C29.6188 37.4443 29.7109 36.441 29.7109 35.127C29.7109 33.8384 29.6188 32.8733 29.4347 32.2315C29.2556 31.5847 29.0126 31.2613 28.7056 31.2613C28.3987 31.2613 28.1557 31.5847 27.9766 32.2315C27.7976 32.8733 27.708 33.8384 27.708 35.127C27.708 36.441 27.7976 37.4443 27.9766 38.137C28.1557 38.8246 28.3987 39.1683 28.7056 39.1683ZM33.9941 39.3059C33.4825 39.3059 33.0477 39.0945 32.6896 38.6718C32.3314 38.249 32.0577 37.6302 31.8684 36.8153C31.6792 35.9953 31.5845 34.9971 31.5845 33.8206C31.5845 32.6186 31.7073 31.6076 31.9529 30.7877C32.1984 29.9677 32.5131 29.3489 32.8968 28.9312C33.2805 28.5136 33.6769 28.3048 34.0862 28.3048C34.3932 28.3048 34.649 28.399 34.8536 28.5874C35.0634 28.7708 35.2194 29.0127 35.3217 29.3132C35.4292 29.6086 35.4829 29.9244 35.4829 30.2605C35.4829 30.4999 35.4471 30.6756 35.3755 30.7877C35.3089 30.8946 35.2092 30.9481 35.0762 30.9481C34.9329 30.9481 34.8306 30.8921 34.7692 30.78C34.7129 30.668 34.6848 30.5152 34.6848 30.3216C34.6848 30.1943 34.7027 30.0823 34.7385 29.9855C34.7794 29.8887 34.8178 29.7869 34.8536 29.6799C34.8946 29.573 34.915 29.438 34.915 29.275C34.915 29.0815 34.8434 28.9083 34.7001 28.7555C34.5569 28.5976 34.3804 28.5187 34.1706 28.5187C33.9046 28.5187 33.6718 28.6868 33.4723 29.0229C33.2728 29.359 33.1065 29.7971 32.9735 30.3369C32.8405 30.8768 32.7407 31.4549 32.6742 32.0711C32.6077 32.6823 32.5744 33.2654 32.5744 33.8206C32.5744 34.4521 32.6 35.0811 32.6512 35.7076C32.7075 36.334 32.7919 36.9045 32.9044 37.4189C33.017 37.9333 33.1653 38.3458 33.3495 38.6565C33.5337 38.9672 33.7562 39.1225 34.0172 39.1225C34.1553 39.1225 34.273 39.0919 34.3702 39.0308C34.4725 38.9697 34.5467 38.9086 34.5927 38.8475V34.4852H33.9404V34.3172H36.1198V34.4852H35.4522V39.1531H35.268C35.2629 39.1429 35.2373 39.1251 35.1913 39.0996C35.1503 39.069 35.0838 39.0537 34.9918 39.0537C34.915 39.0537 34.8229 39.0741 34.7155 39.1149C34.6132 39.1556 34.5006 39.1964 34.3778 39.2371C34.2602 39.2829 34.1323 39.3059 33.9941 39.3059ZM36.3468 39.1531V38.985H37.0529L38.6644 28.4346H38.8946L40.5138 38.985H41.2122V39.1531H38.8179V38.985H39.5009L38.3728 31.0016H38.4342L37.2447 38.985H37.8816V39.1531H36.3468ZM37.5286 36.4486V36.2729H39.3244V36.4486H37.5286Z" fill="black"/>
</g>
</g>
<defs>
<clipPath id="clip0_5_39">
<rect width="51" height="53" fill="white"/>
</clipPath>
</defs>
</svg>
