<svg width="13" height="13" viewBox="0 0 13 13" fill="none" xmlns="http://www.w3.org/2000/svg">
<g clip-path="url(#clip0_5_141)">
<path d="M8.66667 7.58337C10.1624 7.58337 11.375 8.79595 11.375 10.2917V10.8334C11.375 11.4317 10.89 11.9167 10.2917 11.9167H2.70833C2.11002 11.9167 1.625 11.4317 1.625 10.8334V10.2917C1.625 8.79595 2.83756 7.58337 4.33333 7.58337H8.66667ZM6.5 1.08337C7.99576 1.08337 9.20833 2.29594 9.20833 3.79171C9.20833 5.28748 7.99576 6.50004 6.5 6.50004C5.00423 6.50004 3.79167 5.28748 3.79167 3.79171C3.79167 2.29594 5.00423 1.08337 6.5 1.08337Z" fill="#504141"/>
</g>
<defs>
<clipPath id="clip0_5_141">
<rect width="13" height="13" fill="white"/>
</clipPath>
</defs>
</svg>
