<svg width="45" height="45" viewBox="0 0 45 45" fill="none" xmlns="http://www.w3.org/2000/svg">
<path d="M26.6667 7.61425C26.6667 11.6667 30.0162 13.8262 32.4681 15.7591C33.3333 16.4412 34.1667 17.0833 35 17.0833C35.8333 17.0833 36.6667 16.4412 37.5319 15.7591C39.9838 13.8262 43.3333 11.6667 43.3333 7.61425C43.3333 3.5618 38.7498 0.687888 35 4.58386C31.2501 0.687888 26.6667 3.5618 26.6667 7.61425Z" fill="white"/>
<g clip-path="url(#clip0_31_341)">
<path d="M23.3333 30.4166C27.3604 30.4166 30.625 33.6812 30.625 37.7083V39.1666C30.625 40.7775 29.3192 42.0833 27.7083 42.0833H7.29167C5.68084 42.0833 4.375 40.7775 4.375 39.1666V37.7083C4.375 33.6812 7.6396 30.4166 11.6667 30.4166H23.3333ZM17.5 12.9166C21.527 12.9166 24.7917 16.1812 24.7917 20.2083C24.7917 24.2354 21.527 27.5 17.5 27.5C13.4729 27.5 10.2083 24.2354 10.2083 20.2083C10.2083 16.1812 13.4729 12.9166 17.5 12.9166Z" fill="white"/>
</g>
<defs>
<clipPath id="clip0_31_341">
<rect width="35" height="35" fill="white" transform="translate(0 10)"/>
</clipPath>
</defs>
</svg>
