<svg width="1280" height="832" viewBox="0 0 1280 832" fill="none" xmlns="http://www.w3.org/2000/svg">
<g clip-path="url(#clip0_89_2)">
<g opacity="0.3">
<path d="M341.533 -10.0685L324.86 -20.0695C323.826 -20.6901 322.663 -21 321.499 -21C320.337 -21 319.174 -20.6901 318.14 -20.0695L301.467 -10.0685C299.499 -8.88784 298.295 -6.76122 298.295 -4.46659V15.4666C298.295 17.7613 299.499 19.8878 301.467 21.0685L318.14 31.0695C319.174 31.6893 320.337 32 321.499 32C322.663 32 323.826 31.6893 324.86 31.0695L341.533 21.0685C343.501 19.8878 344.705 17.7612 344.705 15.4666V-4.46659C344.705 -6.76122 343.501 -8.88784 341.533 -10.0685ZM320.941 30.0056C320.317 29.9284 319.705 29.7248 319.148 29.3899L302.474 19.3889C301.097 18.5618 300.253 17.0733 300.253 15.4666V-4.46659C300.253 -5.08996 300.382 -5.69449 300.618 -6.25047L320.941 5.93953L320.941 30.0056ZM301.176 -7.22062C301.525 -7.68272 301.962 -8.08166 302.474 -8.38879L319.148 -18.3898C319.872 -18.8241 320.685 -19.041 321.499 -19.041C322.315 -19.041 323.128 -18.8241 323.852 -18.3898L340.525 -8.38879C341.037 -8.08166 341.475 -7.68272 341.824 -7.22062L321.499 4.9701L301.176 -7.22062ZM342.747 15.4666C342.747 17.0733 341.903 18.5618 340.525 19.3889L323.852 29.3899C323.294 29.7248 322.683 29.9284 322.059 30.0056V5.93953L342.382 -6.25047C342.619 -5.69459 342.747 -5.08996 342.747 -4.46659V15.4666H342.747Z" fill="#761F21"/>
<path d="M304.242 4.70326C305.398 5.33295 306.333 4.90626 306.333 3.75195C306.333 2.59693 305.398 1.15071 304.242 0.52123C303.087 -0.108456 302.151 0.317615 302.151 1.47254C302.151 2.62684 303.087 4.07368 304.242 4.70326Z" fill="#761F21"/>
<path d="M315.916 11.0662C317.072 11.6958 318.008 11.2698 318.008 10.1155C318.008 8.96056 317.072 7.51362 315.916 6.88404C314.762 6.25508 313.826 6.68104 313.826 7.83618C313.826 8.99048 314.762 10.4366 315.916 11.0662Z" fill="#761F21"/>
<path d="M304.242 16.3776C305.398 17.0073 306.333 16.5812 306.333 15.4263C306.333 14.2713 305.398 12.825 304.242 12.1956C303.087 11.5659 302.151 11.9918 302.151 13.1469C302.151 14.3018 303.087 15.748 304.242 16.3776Z" fill="#761F21"/>
<path d="M315.916 22.7405C317.072 23.3701 318.008 22.9441 318.008 21.7891C318.008 20.6348 317.072 19.188 315.916 18.5584C314.762 17.9294 313.826 18.3554 313.826 19.5097C313.826 20.6647 314.762 22.1109 315.916 22.7405Z" fill="#761F21"/>
<path d="M310.079 13.7222C311.234 14.3512 312.17 13.9251 312.17 12.7701C312.17 11.6158 311.234 10.169 310.079 9.54C308.925 8.91042 307.988 9.33639 307.988 10.4907C307.988 11.6457 308.925 13.0919 310.079 13.7222Z" fill="#761F21"/>
<path d="M337.911 0.17506C336.756 0.804642 335.821 2.25075 335.821 3.40578C335.821 4.56081 336.756 4.98678 337.911 4.35719C339.066 3.72751 340.003 2.28139 340.003 1.12637C340.003 -0.0286601 339.066 -0.454626 337.911 0.17506Z" fill="#761F21"/>
<path d="M337.911 6.98341C336.756 7.61382 335.821 9.05921 335.821 10.2142C335.821 11.3693 336.756 11.7952 337.911 11.1664C339.066 10.5367 340.003 9.08986 340.003 7.93555C340.003 6.78053 339.066 6.35383 337.911 6.98341Z" fill="#761F21"/>
<path d="M327.748 10.3282C328.903 9.69858 329.84 8.25236 329.84 7.09734C329.84 5.94303 328.903 5.51707 327.748 6.14603C326.593 6.77561 325.658 8.22245 325.658 9.37675C325.658 10.5318 326.593 10.9577 327.748 10.3282Z" fill="#761F21"/>
<path d="M337.911 13.7924C336.756 14.422 335.821 15.8682 335.821 17.0225C335.821 18.1776 336.756 18.6035 337.911 17.9747C339.066 17.345 340.003 15.8982 340.003 14.7431C340.003 13.5888 339.066 13.1629 337.911 13.7924Z" fill="#761F21"/>
<path d="M327.748 19.7634C326.593 20.393 325.658 21.8392 325.658 22.9942C325.658 24.1484 326.593 24.5745 327.748 23.9449C328.903 23.3159 329.84 21.8691 329.84 20.7148C329.84 19.5598 328.903 19.1338 327.748 19.7634Z" fill="#761F21"/>
<path d="M327.873 12.955C326.718 13.584 325.783 15.0308 325.783 16.1851C325.783 17.3401 326.718 17.7661 327.873 17.1365C329.028 16.5069 329.965 15.0607 329.965 13.9058C329.965 12.7515 329.028 12.3254 327.873 12.955Z" fill="#761F21"/>
<path d="M607.533 715.931L590.86 705.931C589.826 705.31 588.663 705 587.499 705C586.337 705 585.174 705.31 584.14 705.931L567.467 715.931C565.499 717.112 564.295 719.239 564.295 721.533V741.467C564.295 743.761 565.499 745.888 567.467 747.069L584.14 757.069C585.174 757.689 586.337 758 587.499 758C588.663 758 589.826 757.689 590.86 757.069L607.533 747.069C609.501 745.888 610.705 743.761 610.705 741.467V721.533C610.705 719.239 609.501 717.112 607.533 715.931ZM586.941 756.006C586.317 755.928 585.705 755.725 585.148 755.39L568.474 745.389C567.097 744.562 566.253 743.073 566.253 741.467V721.533C566.253 720.91 566.382 720.306 566.618 719.75L586.941 731.94L586.941 756.006ZM567.176 718.779C567.525 718.317 567.962 717.918 568.474 717.611L585.148 707.61C585.872 707.176 586.685 706.959 587.499 706.959C588.315 706.959 589.128 707.176 589.852 707.61L606.525 717.611C607.037 717.918 607.475 718.317 607.824 718.779L587.499 730.97L567.176 718.779ZM608.747 741.467C608.747 743.073 607.903 744.562 606.525 745.389L589.852 755.39C589.294 755.725 588.683 755.928 588.059 756.006V731.94L608.382 719.75C608.619 720.305 608.747 720.91 608.747 721.533V741.467H608.747Z" fill="#761F21"/>
<path d="M599.09 716.852C597.971 716.023 596.126 716.003 594.971 716.806C593.816 717.608 593.787 718.932 594.906 719.761C596.026 720.589 597.869 720.61 599.024 719.807C600.179 719.004 600.209 717.681 599.09 716.852Z" fill="#761F21"/>
<path d="M580.013 716.624C578.894 715.795 577.05 715.774 575.895 716.577C574.74 717.38 574.711 718.703 575.83 719.531C576.949 720.36 578.793 720.381 579.948 719.579C581.103 718.775 581.132 717.452 580.013 716.624Z" fill="#761F21"/>
<path d="M570.242 730.703C571.398 731.333 572.333 730.906 572.333 729.752C572.333 728.597 571.398 727.151 570.242 726.521C569.087 725.892 568.151 726.318 568.151 727.473C568.151 728.627 569.087 730.074 570.242 730.703Z" fill="#761F21"/>
<path d="M581.916 737.066C583.072 737.696 584.008 737.27 584.008 736.115C584.008 734.961 583.072 733.514 581.916 732.884C580.762 732.255 579.826 732.681 579.826 733.836C579.826 734.99 580.762 736.437 581.916 737.066Z" fill="#761F21"/>
<path d="M570.242 742.378C571.398 743.007 572.333 742.581 572.333 741.426C572.333 740.271 571.398 738.825 570.242 738.196C569.087 737.566 568.151 737.992 568.151 739.147C568.151 740.302 569.087 741.748 570.242 742.378Z" fill="#761F21"/>
<path d="M581.916 748.741C583.072 749.37 584.008 748.944 584.008 747.789C584.008 746.635 583.072 745.188 581.916 744.558C580.762 743.929 579.826 744.355 579.826 745.51C579.826 746.665 580.762 748.111 581.916 748.741Z" fill="#761F21"/>
<path d="M576.079 739.722C577.234 740.351 578.17 739.925 578.17 738.77C578.17 737.616 577.234 736.169 576.079 735.54C574.925 734.91 573.988 735.336 573.988 736.491C573.988 737.646 574.925 739.092 576.079 739.722Z" fill="#761F21"/>
<path d="M603.911 726.175C602.756 726.805 601.821 728.251 601.821 729.406C601.821 730.561 602.756 730.987 603.911 730.357C605.066 729.728 606.003 728.281 606.003 727.126C606.003 725.971 605.066 725.545 603.911 726.175Z" fill="#761F21"/>
<path d="M603.911 732.983C602.756 733.614 601.821 735.059 601.821 736.214C601.821 737.369 602.756 737.795 603.911 737.166C605.066 736.537 606.003 735.09 606.003 733.936C606.003 732.781 605.066 732.354 603.911 732.983Z" fill="#761F21"/>
<path d="M593.748 736.328C594.903 735.699 595.84 734.252 595.84 733.097C595.84 731.943 594.903 731.517 593.748 732.146C592.593 732.776 591.658 734.222 591.658 735.377C591.658 736.532 592.593 736.958 593.748 736.328Z" fill="#761F21"/>
<path d="M603.911 739.792C602.756 740.422 601.821 741.868 601.821 743.023C601.821 744.178 602.756 744.604 603.911 743.975C605.066 743.345 606.003 741.898 606.003 740.743C606.003 739.589 605.066 739.163 603.911 739.792Z" fill="#761F21"/>
<path d="M593.748 745.763C592.593 746.393 591.658 747.839 591.658 748.994C591.658 750.148 592.593 750.574 593.748 749.945C594.903 749.316 595.84 747.869 595.84 746.715C595.84 745.56 594.903 745.134 593.748 745.763Z" fill="#761F21"/>
<path d="M593.873 738.955C592.718 739.584 591.783 741.031 591.783 742.185C591.783 743.34 592.718 743.766 593.873 743.137C595.028 742.507 595.965 741.061 595.965 739.906C595.965 738.752 595.028 738.325 593.873 738.955Z" fill="#761F21"/>
<path d="M713.533 446.931L696.86 436.931C695.826 436.31 694.663 436 693.499 436C692.337 436 691.174 436.31 690.14 436.931L673.467 446.931C671.499 448.112 670.295 450.239 670.295 452.533V472.467C670.295 474.761 671.499 476.888 673.467 478.069L690.14 488.069C691.174 488.689 692.337 489 693.499 489C694.663 489 695.826 488.689 696.86 488.069L713.533 478.069C715.501 476.888 716.705 474.761 716.705 472.467V452.533C716.705 450.239 715.501 448.112 713.533 446.931ZM692.941 487.006C692.317 486.928 691.705 486.725 691.148 486.39L674.474 476.389C673.097 475.562 672.253 474.073 672.253 472.467V452.533C672.253 451.91 672.382 451.306 672.618 450.75L692.941 462.94L692.941 487.006ZM673.176 449.779C673.525 449.317 673.962 448.918 674.474 448.611L691.148 438.61C691.872 438.176 692.685 437.959 693.499 437.959C694.315 437.959 695.128 438.176 695.852 438.61L712.525 448.611C713.037 448.918 713.475 449.317 713.824 449.779L693.499 461.97L673.176 449.779ZM714.747 472.467C714.747 474.073 713.903 475.562 712.525 476.389L695.852 486.39C695.294 486.725 694.683 486.928 694.059 487.006V462.94L714.382 450.75C714.619 451.305 714.747 451.91 714.747 452.533V472.467H714.747Z" fill="#761F21"/>
<path d="M705.09 447.852C703.971 447.023 702.126 447.003 700.971 447.806C699.816 448.608 699.787 449.932 700.906 450.761C702.026 451.589 703.869 451.61 705.024 450.807C706.179 450.004 706.209 448.681 705.09 447.852Z" fill="#761F21"/>
<path d="M686.013 447.624C684.894 446.795 683.05 446.774 681.895 447.577C680.74 448.38 680.711 449.703 681.83 450.531C682.949 451.36 684.793 451.381 685.948 450.579C687.103 449.775 687.132 448.452 686.013 447.624Z" fill="#761F21"/>
<path d="M676.242 461.703C677.398 462.333 678.333 461.906 678.333 460.752C678.333 459.597 677.398 458.151 676.242 457.521C675.087 456.892 674.151 457.318 674.151 458.473C674.151 459.627 675.087 461.074 676.242 461.703Z" fill="#761F21"/>
<path d="M687.916 468.066C689.072 468.696 690.008 468.27 690.008 467.115C690.008 465.961 689.072 464.514 687.916 463.884C686.762 463.255 685.826 463.681 685.826 464.836C685.826 465.99 686.762 467.437 687.916 468.066Z" fill="#761F21"/>
<path d="M676.242 473.378C677.398 474.007 678.333 473.581 678.333 472.426C678.333 471.271 677.398 469.825 676.242 469.196C675.087 468.566 674.151 468.992 674.151 470.147C674.151 471.302 675.087 472.748 676.242 473.378Z" fill="#761F21"/>
<path d="M687.916 479.741C689.072 480.37 690.008 479.944 690.008 478.789C690.008 477.635 689.072 476.188 687.916 475.558C686.762 474.929 685.826 475.355 685.826 476.51C685.826 477.665 686.762 479.111 687.916 479.741Z" fill="#761F21"/>
<path d="M682.079 470.722C683.234 471.351 684.17 470.925 684.17 469.77C684.17 468.616 683.234 467.169 682.079 466.54C680.925 465.91 679.988 466.336 679.988 467.491C679.988 468.646 680.925 470.092 682.079 470.722Z" fill="#761F21"/>
<path d="M709.911 457.175C708.756 457.805 707.821 459.251 707.821 460.406C707.821 461.561 708.756 461.987 709.911 461.357C711.066 460.728 712.003 459.281 712.003 458.126C712.003 456.971 711.066 456.545 709.911 457.175Z" fill="#761F21"/>
<path d="M709.911 463.983C708.756 464.614 707.821 466.059 707.821 467.214C707.821 468.369 708.756 468.795 709.911 468.166C711.066 467.537 712.003 466.09 712.003 464.936C712.003 463.781 711.066 463.354 709.911 463.983Z" fill="#761F21"/>
<path d="M699.748 467.328C700.903 466.699 701.84 465.252 701.84 464.097C701.84 462.943 700.903 462.517 699.748 463.146C698.593 463.776 697.658 465.222 697.658 466.377C697.658 467.532 698.593 467.958 699.748 467.328Z" fill="#761F21"/>
<path d="M709.911 470.792C708.756 471.422 707.821 472.868 707.821 474.023C707.821 475.178 708.756 475.604 709.911 474.975C711.066 474.345 712.003 472.898 712.003 471.743C712.003 470.589 711.066 470.163 709.911 470.792Z" fill="#761F21"/>
<path d="M699.748 476.763C698.593 477.393 697.658 478.839 697.658 479.994C697.658 481.148 698.593 481.574 699.748 480.945C700.903 480.316 701.84 478.869 701.84 477.715C701.84 476.56 700.903 476.134 699.748 476.763Z" fill="#761F21"/>
<path d="M699.873 469.955C698.718 470.584 697.783 472.031 697.783 473.185C697.783 474.34 698.718 474.766 699.873 474.137C701.028 473.507 701.965 472.061 701.965 470.906C701.965 469.752 701.028 469.325 699.873 469.955Z" fill="#761F21"/>
<path d="M291.533 363.931L274.86 353.931C273.826 353.31 272.663 353 271.499 353C270.337 353 269.174 353.31 268.14 353.931L251.467 363.931C249.499 365.112 248.295 367.239 248.295 369.533V389.467C248.295 391.761 249.499 393.888 251.467 395.069L268.14 405.069C269.174 405.689 270.337 406 271.499 406C272.663 406 273.826 405.689 274.86 405.069L291.533 395.069C293.501 393.888 294.705 391.761 294.705 389.467V369.533C294.705 367.239 293.501 365.112 291.533 363.931ZM270.941 404.006C270.317 403.928 269.705 403.725 269.148 403.39L252.474 393.389C251.097 392.562 250.253 391.073 250.253 389.467V369.533C250.253 368.91 250.382 368.306 250.618 367.75L270.941 379.94L270.941 404.006ZM251.176 366.779C251.525 366.317 251.962 365.918 252.474 365.611L269.148 355.61C269.872 355.176 270.685 354.959 271.499 354.959C272.315 354.959 273.128 355.176 273.852 355.61L290.525 365.611C291.037 365.918 291.475 366.317 291.824 366.779L271.499 378.97L251.176 366.779ZM292.747 389.467C292.747 391.073 291.903 392.562 290.525 393.389L273.852 403.39C273.294 403.725 272.683 403.928 272.059 404.006V379.94L292.382 367.75C292.619 368.305 292.747 368.91 292.747 369.533V389.467H292.747Z" fill="#761F21"/>
<path d="M283.09 364.852C281.971 364.023 280.126 364.003 278.971 364.806C277.816 365.608 277.787 366.932 278.906 367.761C280.026 368.589 281.869 368.61 283.024 367.807C284.179 367.004 284.209 365.681 283.09 364.852Z" fill="#761F21"/>
<path d="M264.013 364.624C262.894 363.795 261.05 363.774 259.895 364.577C258.74 365.38 258.711 366.703 259.83 367.531C260.949 368.36 262.793 368.381 263.948 367.579C265.103 366.775 265.132 365.452 264.013 364.624Z" fill="#761F21"/>
<path d="M254.242 378.703C255.398 379.333 256.333 378.906 256.333 377.752C256.333 376.597 255.398 375.151 254.242 374.521C253.087 373.892 252.151 374.318 252.151 375.473C252.151 376.627 253.087 378.074 254.242 378.703Z" fill="#761F21"/>
<path d="M265.916 385.066C267.072 385.696 268.008 385.27 268.008 384.115C268.008 382.961 267.072 381.514 265.916 380.884C264.762 380.255 263.826 380.681 263.826 381.836C263.826 382.99 264.762 384.437 265.916 385.066Z" fill="#761F21"/>
<path d="M254.242 390.378C255.398 391.007 256.333 390.581 256.333 389.426C256.333 388.271 255.398 386.825 254.242 386.196C253.087 385.566 252.151 385.992 252.151 387.147C252.151 388.302 253.087 389.748 254.242 390.378Z" fill="#761F21"/>
<path d="M265.916 396.741C267.072 397.37 268.008 396.944 268.008 395.789C268.008 394.635 267.072 393.188 265.916 392.558C264.762 391.929 263.826 392.355 263.826 393.51C263.826 394.665 264.762 396.111 265.916 396.741Z" fill="#761F21"/>
<path d="M260.079 387.722C261.234 388.351 262.17 387.925 262.17 386.77C262.17 385.616 261.234 384.169 260.079 383.54C258.925 382.91 257.988 383.336 257.988 384.491C257.988 385.646 258.925 387.092 260.079 387.722Z" fill="#761F21"/>
<path d="M287.911 374.175C286.756 374.805 285.821 376.251 285.821 377.406C285.821 378.561 286.756 378.987 287.911 378.357C289.066 377.728 290.003 376.281 290.003 375.126C290.003 373.971 289.066 373.545 287.911 374.175Z" fill="#761F21"/>
<path d="M287.911 380.983C286.756 381.614 285.821 383.059 285.821 384.214C285.821 385.369 286.756 385.795 287.911 385.166C289.066 384.537 290.003 383.09 290.003 381.936C290.003 380.781 289.066 380.354 287.911 380.983Z" fill="#761F21"/>
<path d="M277.748 384.328C278.903 383.699 279.84 382.252 279.84 381.097C279.84 379.943 278.903 379.517 277.748 380.146C276.593 380.776 275.658 382.222 275.658 383.377C275.658 384.532 276.593 384.958 277.748 384.328Z" fill="#761F21"/>
<path d="M287.911 387.792C286.756 388.422 285.821 389.868 285.821 391.023C285.821 392.178 286.756 392.604 287.911 391.975C289.066 391.345 290.003 389.898 290.003 388.743C290.003 387.589 289.066 387.163 287.911 387.792Z" fill="#761F21"/>
<path d="M277.748 393.763C276.593 394.393 275.658 395.839 275.658 396.994C275.658 398.148 276.593 398.574 277.748 397.945C278.903 397.316 279.84 395.869 279.84 394.715C279.84 393.56 278.903 393.134 277.748 393.763Z" fill="#761F21"/>
<path d="M277.873 386.955C276.718 387.584 275.783 389.031 275.783 390.185C275.783 391.34 276.718 391.766 277.873 391.137C279.028 390.507 279.965 389.061 279.965 387.906C279.965 386.752 279.028 386.325 277.873 386.955Z" fill="#761F21"/>
<path d="M128.533 568.931L111.86 558.931C110.826 558.31 109.663 558 108.499 558C107.337 558 106.174 558.31 105.14 558.931L88.4668 568.931C86.4987 570.112 85.295 572.239 85.295 574.533V594.467C85.295 596.761 86.4987 598.888 88.4668 600.069L105.14 610.069C106.174 610.689 107.337 611 108.499 611C109.663 611 110.826 610.689 111.86 610.069L128.533 600.069C130.501 598.888 131.705 596.761 131.705 594.467V574.533C131.705 572.239 130.501 570.112 128.533 568.931ZM107.941 609.006C107.317 608.928 106.705 608.725 106.148 608.39L89.4745 598.389C88.0971 597.562 87.2535 596.073 87.2535 594.467V574.533C87.2535 573.91 87.382 573.306 87.6176 572.75L107.941 584.94L107.941 609.006ZM88.1763 571.779C88.5251 571.317 88.9623 570.918 89.4744 570.611L106.148 560.61C106.872 560.176 107.685 559.959 108.499 559.959C109.315 559.959 110.128 560.176 110.852 560.61L127.525 570.611C128.037 570.918 128.475 571.317 128.824 571.779L108.499 583.97L88.1763 571.779ZM129.747 594.467C129.747 596.073 128.903 597.562 127.525 598.389L110.852 608.39C110.294 608.725 109.683 608.928 109.059 609.006V584.94L129.382 572.75C129.619 573.305 129.747 573.91 129.747 574.533V594.467H129.747Z" fill="#761F21"/>
<path d="M120.09 569.852C118.971 569.023 117.126 569.003 115.971 569.806C114.816 570.608 114.787 571.932 115.906 572.761C117.026 573.589 118.869 573.61 120.024 572.807C121.179 572.004 121.209 570.681 120.09 569.852Z" fill="#761F21"/>
<path d="M101.013 569.624C99.8938 568.795 98.0502 568.774 96.8951 569.577C95.7401 570.38 95.7109 571.703 96.8298 572.531C97.9486 573.36 99.7931 573.381 100.948 572.579C102.103 571.775 102.132 570.452 101.013 569.624Z" fill="#761F21"/>
<path d="M91.2425 583.703C92.3975 584.333 93.3329 583.906 93.3329 582.752C93.3329 581.597 92.3975 580.151 91.2425 579.521C90.0875 578.892 89.1514 579.318 89.1514 580.473C89.1514 581.627 90.0875 583.074 91.2425 583.703Z" fill="#761F21"/>
<path d="M102.916 590.066C104.072 590.696 105.008 590.27 105.008 589.115C105.008 587.961 104.072 586.514 102.916 585.884C101.762 585.255 100.826 585.681 100.826 586.836C100.826 587.99 101.762 589.437 102.916 590.066Z" fill="#761F21"/>
<path d="M91.2425 595.378C92.3975 596.007 93.3329 595.581 93.3329 594.426C93.3329 593.271 92.3975 591.825 91.2425 591.196C90.0875 590.566 89.1514 590.992 89.1514 592.147C89.1514 593.302 90.0875 594.748 91.2425 595.378Z" fill="#761F21"/>
<path d="M102.916 601.741C104.072 602.37 105.008 601.944 105.008 600.789C105.008 599.635 104.072 598.188 102.916 597.558C101.762 596.929 100.826 597.355 100.826 598.51C100.826 599.665 101.762 601.111 102.916 601.741Z" fill="#761F21"/>
<path d="M97.0793 592.722C98.2343 593.351 99.1704 592.925 99.1704 591.77C99.1704 590.616 98.2343 589.169 97.0793 588.54C95.9251 587.91 94.9883 588.336 94.9883 589.491C94.9883 590.646 95.9251 592.092 97.0793 592.722Z" fill="#761F21"/>
<path d="M124.911 579.175C123.756 579.805 122.821 581.251 122.821 582.406C122.821 583.561 123.756 583.987 124.911 583.357C126.066 582.728 127.003 581.281 127.003 580.126C127.003 578.971 126.066 578.545 124.911 579.175Z" fill="#761F21"/>
<path d="M124.911 585.983C123.756 586.614 122.821 588.059 122.821 589.214C122.821 590.369 123.756 590.795 124.911 590.166C126.066 589.537 127.003 588.09 127.003 586.936C127.003 585.781 126.066 585.354 124.911 585.983Z" fill="#761F21"/>
<path d="M114.748 589.328C115.903 588.699 116.84 587.252 116.84 586.097C116.84 584.943 115.903 584.517 114.748 585.146C113.593 585.776 112.658 587.222 112.658 588.377C112.658 589.532 113.593 589.958 114.748 589.328Z" fill="#761F21"/>
<path d="M124.911 592.792C123.756 593.422 122.821 594.868 122.821 596.023C122.821 597.178 123.756 597.604 124.911 596.975C126.066 596.345 127.003 594.898 127.003 593.743C127.003 592.589 126.066 592.163 124.911 592.792Z" fill="#761F21"/>
<path d="M114.748 598.763C113.593 599.393 112.658 600.839 112.658 601.994C112.658 603.148 113.593 603.574 114.748 602.945C115.903 602.316 116.84 600.869 116.84 599.715C116.84 598.56 115.903 598.134 114.748 598.763Z" fill="#761F21"/>
<path d="M114.873 591.955C113.718 592.584 112.783 594.031 112.783 595.185C112.783 596.34 113.718 596.766 114.873 596.137C116.028 595.507 116.965 594.061 116.965 592.906C116.965 591.752 116.028 591.325 114.873 591.955Z" fill="#761F21"/>
<path d="M1116.53 726.931L1099.86 716.931C1098.83 716.31 1097.66 716 1096.5 716C1095.34 716 1094.17 716.31 1093.14 716.931L1076.47 726.931C1074.5 728.112 1073.29 730.239 1073.29 732.533V752.467C1073.29 754.761 1074.5 756.888 1076.47 758.069L1093.14 768.069C1094.17 768.689 1095.34 769 1096.5 769C1097.66 769 1098.83 768.689 1099.86 768.069L1116.53 758.069C1118.5 756.888 1119.7 754.761 1119.7 752.467V732.533C1119.7 730.239 1118.5 728.112 1116.53 726.931ZM1095.94 767.006C1095.32 766.928 1094.7 766.725 1094.15 766.39L1077.47 756.389C1076.1 755.562 1075.25 754.073 1075.25 752.467V732.533C1075.25 731.91 1075.38 731.306 1075.62 730.75L1095.94 742.94L1095.94 767.006ZM1076.18 729.779C1076.53 729.317 1076.96 728.918 1077.47 728.611L1094.15 718.61C1094.87 718.176 1095.68 717.959 1096.5 717.959C1097.32 717.959 1098.13 718.176 1098.85 718.61L1115.53 728.611C1116.04 728.918 1116.47 729.317 1116.82 729.779L1096.5 741.97L1076.18 729.779ZM1117.75 752.467C1117.75 754.073 1116.9 755.562 1115.53 756.389L1098.85 766.39C1098.29 766.725 1097.68 766.928 1097.06 767.006V742.94L1117.38 730.75C1117.62 731.305 1117.75 731.91 1117.75 732.533V752.467H1117.75Z" fill="#761F21"/>
<path d="M1108.09 727.852C1106.97 727.023 1105.13 727.003 1103.97 727.806C1102.82 728.608 1102.79 729.932 1103.91 730.761C1105.03 731.589 1106.87 731.61 1108.02 730.807C1109.18 730.004 1109.21 728.681 1108.09 727.852Z" fill="#761F21"/>
<path d="M1089.01 727.624C1087.89 726.795 1086.05 726.774 1084.9 727.577C1083.74 728.38 1083.71 729.703 1084.83 730.531C1085.95 731.36 1087.79 731.381 1088.95 730.579C1090.1 729.775 1090.13 728.452 1089.01 727.624Z" fill="#761F21"/>
<path d="M1079.24 741.703C1080.4 742.333 1081.33 741.906 1081.33 740.752C1081.33 739.597 1080.4 738.151 1079.24 737.521C1078.09 736.892 1077.15 737.318 1077.15 738.473C1077.15 739.627 1078.09 741.074 1079.24 741.703Z" fill="#761F21"/>
<path d="M1090.92 748.066C1092.07 748.696 1093.01 748.27 1093.01 747.115C1093.01 745.961 1092.07 744.514 1090.92 743.884C1089.76 743.255 1088.83 743.681 1088.83 744.836C1088.83 745.99 1089.76 747.437 1090.92 748.066Z" fill="#761F21"/>
<path d="M1079.24 753.378C1080.4 754.007 1081.33 753.581 1081.33 752.426C1081.33 751.271 1080.4 749.825 1079.24 749.196C1078.09 748.566 1077.15 748.992 1077.15 750.147C1077.15 751.302 1078.09 752.748 1079.24 753.378Z" fill="#761F21"/>
<path d="M1090.92 759.741C1092.07 760.37 1093.01 759.944 1093.01 758.789C1093.01 757.635 1092.07 756.188 1090.92 755.558C1089.76 754.929 1088.83 755.355 1088.83 756.51C1088.83 757.665 1089.76 759.111 1090.92 759.741Z" fill="#761F21"/>
<path d="M1085.08 750.722C1086.23 751.351 1087.17 750.925 1087.17 749.77C1087.17 748.616 1086.23 747.169 1085.08 746.54C1083.92 745.91 1082.99 746.336 1082.99 747.491C1082.99 748.646 1083.92 750.092 1085.08 750.722Z" fill="#761F21"/>
<path d="M1112.91 737.175C1111.76 737.805 1110.82 739.251 1110.82 740.406C1110.82 741.561 1111.76 741.987 1112.91 741.357C1114.07 740.728 1115 739.281 1115 738.126C1115 736.971 1114.07 736.545 1112.91 737.175Z" fill="#761F21"/>
<path d="M1112.91 743.983C1111.76 744.614 1110.82 746.059 1110.82 747.214C1110.82 748.369 1111.76 748.795 1112.91 748.166C1114.07 747.537 1115 746.09 1115 744.936C1115 743.781 1114.07 743.354 1112.91 743.983Z" fill="#761F21"/>
<path d="M1102.75 747.328C1103.9 746.699 1104.84 745.252 1104.84 744.097C1104.84 742.943 1103.9 742.517 1102.75 743.146C1101.59 743.776 1100.66 745.222 1100.66 746.377C1100.66 747.532 1101.59 747.958 1102.75 747.328Z" fill="#761F21"/>
<path d="M1112.91 750.792C1111.76 751.422 1110.82 752.868 1110.82 754.023C1110.82 755.178 1111.76 755.604 1112.91 754.975C1114.07 754.345 1115 752.898 1115 751.743C1115 750.589 1114.07 750.163 1112.91 750.792Z" fill="#761F21"/>
<path d="M1102.75 756.763C1101.59 757.393 1100.66 758.839 1100.66 759.994C1100.66 761.148 1101.59 761.574 1102.75 760.945C1103.9 760.316 1104.84 758.869 1104.84 757.715C1104.84 756.56 1103.9 756.134 1102.75 756.763Z" fill="#761F21"/>
<path d="M1102.87 749.955C1101.72 750.584 1100.78 752.031 1100.78 753.185C1100.78 754.34 1101.72 754.766 1102.87 754.137C1104.03 753.507 1104.97 752.061 1104.97 750.906C1104.97 749.752 1104.03 749.325 1102.87 749.955Z" fill="#761F21"/>
<path d="M1032.53 416.931L1015.86 406.931C1014.83 406.31 1013.66 406 1012.5 406C1011.34 406 1010.17 406.31 1009.14 406.931L992.467 416.931C990.499 418.112 989.295 420.239 989.295 422.533V442.467C989.295 444.761 990.499 446.888 992.467 448.069L1009.14 458.069C1010.17 458.689 1011.34 459 1012.5 459C1013.66 459 1014.83 458.689 1015.86 458.069L1032.53 448.069C1034.5 446.888 1035.7 444.761 1035.7 442.467V422.533C1035.7 420.239 1034.5 418.112 1032.53 416.931ZM1011.94 457.006C1011.32 456.928 1010.7 456.725 1010.15 456.39L993.474 446.389C992.097 445.562 991.253 444.073 991.253 442.467V422.533C991.253 421.91 991.382 421.306 991.618 420.75L1011.94 432.94L1011.94 457.006ZM992.176 419.779C992.525 419.317 992.962 418.918 993.474 418.611L1010.15 408.61C1010.87 408.176 1011.68 407.959 1012.5 407.959C1013.32 407.959 1014.13 408.176 1014.85 408.61L1031.53 418.611C1032.04 418.918 1032.47 419.317 1032.82 419.779L1012.5 431.97L992.176 419.779ZM1033.75 442.467C1033.75 444.073 1032.9 445.562 1031.53 446.389L1014.85 456.39C1014.29 456.725 1013.68 456.928 1013.06 457.006V432.94L1033.38 420.75C1033.62 421.305 1033.75 421.91 1033.75 422.533V442.467H1033.75Z" fill="#761F21"/>
<path d="M1024.09 417.852C1022.97 417.023 1021.13 417.003 1019.97 417.806C1018.82 418.608 1018.79 419.932 1019.91 420.761C1021.03 421.589 1022.87 421.61 1024.02 420.807C1025.18 420.004 1025.21 418.681 1024.09 417.852Z" fill="#761F21"/>
<path d="M1005.01 417.624C1003.89 416.795 1002.05 416.774 1000.9 417.577C999.74 418.38 999.711 419.703 1000.83 420.531C1001.95 421.36 1003.79 421.381 1004.95 420.579C1006.1 419.775 1006.13 418.452 1005.01 417.624Z" fill="#761F21"/>
<path d="M995.242 431.703C996.397 432.333 997.333 431.906 997.333 430.752C997.333 429.597 996.397 428.151 995.242 427.521C994.087 426.892 993.151 427.318 993.151 428.473C993.151 429.627 994.087 431.074 995.242 431.703Z" fill="#761F21"/>
<path d="M1006.92 438.066C1008.07 438.696 1009.01 438.27 1009.01 437.115C1009.01 435.961 1008.07 434.514 1006.92 433.884C1005.76 433.255 1004.83 433.681 1004.83 434.836C1004.83 435.99 1005.76 437.437 1006.92 438.066Z" fill="#761F21"/>
<path d="M995.242 443.378C996.397 444.007 997.333 443.581 997.333 442.426C997.333 441.271 996.397 439.825 995.242 439.196C994.087 438.566 993.151 438.992 993.151 440.147C993.151 441.302 994.087 442.748 995.242 443.378Z" fill="#761F21"/>
<path d="M1006.92 449.741C1008.07 450.37 1009.01 449.944 1009.01 448.789C1009.01 447.635 1008.07 446.188 1006.92 445.558C1005.76 444.929 1004.83 445.355 1004.83 446.51C1004.83 447.665 1005.76 449.111 1006.92 449.741Z" fill="#761F21"/>
<path d="M1001.08 440.722C1002.23 441.351 1003.17 440.925 1003.17 439.77C1003.17 438.616 1002.23 437.169 1001.08 436.54C999.925 435.91 998.988 436.336 998.988 437.491C998.988 438.646 999.925 440.092 1001.08 440.722Z" fill="#761F21"/>
<path d="M1028.91 427.175C1027.76 427.805 1026.82 429.251 1026.82 430.406C1026.82 431.561 1027.76 431.987 1028.91 431.357C1030.07 430.728 1031 429.281 1031 428.126C1031 426.971 1030.07 426.545 1028.91 427.175Z" fill="#761F21"/>
<path d="M1028.91 433.983C1027.76 434.614 1026.82 436.059 1026.82 437.214C1026.82 438.369 1027.76 438.795 1028.91 438.166C1030.07 437.537 1031 436.09 1031 434.936C1031 433.781 1030.07 433.354 1028.91 433.983Z" fill="#761F21"/>
<path d="M1018.75 437.328C1019.9 436.699 1020.84 435.252 1020.84 434.097C1020.84 432.943 1019.9 432.517 1018.75 433.146C1017.59 433.776 1016.66 435.222 1016.66 436.377C1016.66 437.532 1017.59 437.958 1018.75 437.328Z" fill="#761F21"/>
<path d="M1028.91 440.792C1027.76 441.422 1026.82 442.868 1026.82 444.023C1026.82 445.178 1027.76 445.604 1028.91 444.975C1030.07 444.345 1031 442.898 1031 441.743C1031 440.589 1030.07 440.163 1028.91 440.792Z" fill="#761F21"/>
<path d="M1018.75 446.763C1017.59 447.393 1016.66 448.839 1016.66 449.994C1016.66 451.148 1017.59 451.574 1018.75 450.945C1019.9 450.316 1020.84 448.869 1020.84 447.715C1020.84 446.56 1019.9 446.134 1018.75 446.763Z" fill="#761F21"/>
<path d="M1018.87 439.955C1017.72 440.584 1016.78 442.031 1016.78 443.185C1016.78 444.34 1017.72 444.766 1018.87 444.137C1020.03 443.507 1020.97 442.061 1020.97 440.906C1020.97 439.752 1020.03 439.325 1018.87 439.955Z" fill="#761F21"/>
<path d="M1287.53 -2.06854L1270.86 -12.0695C1269.83 -12.6901 1268.66 -13 1267.5 -13C1266.34 -13 1265.17 -12.6901 1264.14 -12.0695L1247.47 -2.06854C1245.5 -0.887844 1244.29 1.23878 1244.29 3.53341V23.4666C1244.29 25.7613 1245.5 27.8878 1247.47 29.0685L1264.14 39.0695C1265.17 39.6893 1266.34 40 1267.5 40C1268.66 40 1269.83 39.6893 1270.86 39.0695L1287.53 29.0685C1289.5 27.8878 1290.7 25.7612 1290.7 23.4666V3.53341C1290.7 1.23878 1289.5 -0.887844 1287.53 -2.06854ZM1266.94 38.0056C1266.32 37.9284 1265.7 37.7248 1265.15 37.3899L1248.47 27.3889C1247.1 26.5618 1246.25 25.0733 1246.25 23.4666V3.53341C1246.25 2.91004 1246.38 2.30551 1246.62 1.74953L1266.94 13.9395L1266.94 38.0056ZM1247.18 0.779379C1247.53 0.317285 1247.96 -0.0816638 1248.47 -0.388795L1265.15 -10.3898C1265.87 -10.8241 1266.68 -11.041 1267.5 -11.041C1268.32 -11.041 1269.13 -10.8241 1269.85 -10.3898L1286.53 -0.388795C1287.04 -0.0816638 1287.47 0.317285 1287.82 0.779379L1267.5 12.9701L1247.18 0.779379ZM1288.75 23.4666C1288.75 25.0733 1287.9 26.5618 1286.53 27.3889L1269.85 37.3899C1269.29 37.7248 1268.68 37.9284 1268.06 38.0056V13.9395L1288.38 1.74953C1288.62 2.30541 1288.75 2.91004 1288.75 3.53341V23.4666H1288.75Z" fill="#761F21"/>
<path d="M1279.09 -1.14772C1277.97 -1.97688 1276.13 -1.99697 1274.97 -1.19431C1273.82 -0.391646 1273.79 0.932215 1274.91 1.76065C1276.03 2.58898 1277.87 2.60979 1279.02 1.80723C1280.18 1.00375 1280.21 -0.318667 1279.09 -1.14772Z" fill="#761F21"/>
<path d="M1260.01 -1.37623C1258.89 -2.20466 1257.05 -2.2262 1255.9 -1.42281C1254.74 -0.620151 1254.71 0.702986 1255.83 1.53132C1256.95 2.36038 1258.79 2.38056 1259.95 1.57852C1261.1 0.774619 1261.13 -0.547896 1260.01 -1.37623Z" fill="#761F21"/>
<path d="M1250.24 12.7033C1251.4 13.3329 1252.33 12.9063 1252.33 11.752C1252.33 10.5969 1251.4 9.15071 1250.24 8.52123C1249.09 7.89154 1248.15 8.31762 1248.15 9.47254C1248.15 10.6268 1249.09 12.0737 1250.24 12.7033Z" fill="#761F21"/>
<path d="M1261.92 19.0662C1263.07 19.6958 1264.01 19.2698 1264.01 18.1155C1264.01 16.9606 1263.07 15.5136 1261.92 14.884C1260.76 14.2551 1259.83 14.681 1259.83 15.8362C1259.83 16.9905 1260.76 18.4366 1261.92 19.0662Z" fill="#761F21"/>
<path d="M1250.24 24.3776C1251.4 25.0073 1252.33 24.5812 1252.33 23.4263C1252.33 22.2713 1251.4 20.825 1250.24 20.1956C1249.09 19.5659 1248.15 19.9918 1248.15 21.1469C1248.15 22.3018 1249.09 23.748 1250.24 24.3776Z" fill="#761F21"/>
<path d="M1261.92 30.7405C1263.07 31.3701 1264.01 30.9441 1264.01 29.7891C1264.01 28.6348 1263.07 27.188 1261.92 26.5584C1260.76 25.9294 1259.83 26.3554 1259.83 27.5097C1259.83 28.6647 1260.76 30.1109 1261.92 30.7405Z" fill="#761F21"/>
<path d="M1256.08 21.7222C1257.23 22.3512 1258.17 21.9251 1258.17 20.7701C1258.17 19.6158 1257.23 18.169 1256.08 17.54C1254.92 16.9104 1253.99 17.3364 1253.99 18.4907C1253.99 19.6457 1254.92 21.0919 1256.08 21.7222Z" fill="#761F21"/>
<path d="M1273.75 18.3282C1274.9 17.6986 1275.84 16.2524 1275.84 15.0973C1275.84 13.943 1274.9 13.5171 1273.75 14.146C1272.59 14.7756 1271.66 16.2224 1271.66 17.3767C1271.66 18.5318 1272.59 18.9577 1273.75 18.3282Z" fill="#761F21"/>
<path d="M1273.75 27.7634C1272.59 28.393 1271.66 29.8392 1271.66 30.9942C1271.66 32.1484 1272.59 32.5745 1273.75 31.9449C1274.9 31.3159 1275.84 29.8691 1275.84 28.7148C1275.84 27.5598 1274.9 27.1338 1273.75 27.7634Z" fill="#761F21"/>
<path d="M1273.87 20.955C1272.72 21.584 1271.78 23.0308 1271.78 24.1851C1271.78 25.3401 1272.72 25.7661 1273.87 25.1365C1275.03 24.5069 1275.97 23.0607 1275.97 21.9058C1275.97 20.7515 1275.03 20.3254 1273.87 20.955Z" fill="#761F21"/>
<path d="M128.534 170.931L111.86 160.931C110.826 160.31 109.663 160 108.501 160C107.338 160 106.174 160.31 105.14 160.931L88.4671 170.931C86.4991 172.112 85.2947 174.239 85.2947 176.533V196.467C85.2947 198.761 86.4991 200.888 88.4671 202.069L105.14 212.069C106.174 212.689 107.338 213 108.501 213C109.663 213 110.826 212.689 111.86 212.069L128.534 202.069C130.502 200.888 131.705 198.761 131.705 196.467V176.533C131.705 174.239 130.502 172.112 128.534 170.931ZM107.941 211.006C107.317 210.928 106.706 210.724 106.148 210.39L89.4748 200.389C88.0975 199.562 87.2538 198.073 87.2538 196.467V176.533C87.2538 175.91 87.3818 175.306 87.618 174.75L107.941 186.94V211.006H107.941ZM88.1767 173.779C88.5249 173.317 88.9627 172.918 89.4748 172.611L106.148 162.61C106.872 162.176 107.685 161.959 108.501 161.959C109.316 161.959 110.129 162.176 110.853 162.61L127.526 172.611C128.037 172.918 128.477 173.317 128.824 173.779L108.501 185.97L88.1767 173.779ZM129.747 196.467C129.747 198.073 128.903 199.562 127.526 200.389L110.853 210.39C110.294 210.724 109.684 210.928 109.06 211.006V186.94L129.383 174.75C129.619 175.305 129.747 175.91 129.747 176.533V196.467Z" fill="#761F21"/>
<path d="M98.5841 172.409C97.5667 171.656 95.8905 171.636 94.8404 172.366C93.7904 173.097 93.764 174.299 94.7814 175.052C95.7988 175.806 97.4751 175.825 98.5244 175.095C99.5751 174.364 99.6015 173.162 98.5841 172.409Z" fill="#761F21"/>
<path d="M110.897 165.04C109.88 164.287 108.204 164.268 107.153 164.998C106.104 165.728 106.077 166.93 107.095 167.683C108.112 168.437 109.788 168.455 110.838 167.726C111.888 166.995 111.915 165.793 110.897 165.04Z" fill="#761F21"/>
<path d="M104.834 168.491C103.816 167.738 102.14 167.719 101.09 168.449C100.039 169.179 100.013 170.381 101.031 171.134C102.048 171.888 103.725 171.906 104.775 171.177C105.824 170.446 105.851 169.244 104.834 168.491Z" fill="#761F21"/>
<path d="M109.684 179.125C108.667 178.372 106.991 178.353 105.941 179.082C104.89 179.813 104.864 181.015 105.881 181.768C106.898 182.522 108.575 182.541 109.625 181.811C110.675 181.08 110.701 179.878 109.684 179.125Z" fill="#761F21"/>
<path d="M121.997 171.756C120.979 171.003 119.303 170.984 118.254 171.714C117.203 172.444 117.177 173.646 118.194 174.399C119.212 175.153 120.888 175.171 121.939 174.442C122.988 173.711 123.014 172.509 121.997 171.756Z" fill="#761F21"/>
<path d="M115.934 175.207C114.917 174.454 113.24 174.435 112.19 175.165C111.14 175.895 111.114 177.097 112.131 177.85C113.149 178.604 114.825 178.623 115.874 177.893C116.925 177.162 116.952 175.961 115.934 175.207Z" fill="#761F21"/>
<path d="M91.2427 185.703C92.3978 186.333 93.3331 185.906 93.3331 184.752C93.3331 183.597 92.3978 182.151 91.2427 181.521C90.0878 180.892 89.151 181.318 89.151 182.473C89.1509 183.627 90.0877 185.074 91.2427 185.703Z" fill="#761F21"/>
<path d="M102.916 192.066C104.071 192.696 105.008 192.27 105.008 191.115C105.008 189.961 104.071 188.514 102.916 187.884C101.762 187.255 100.826 187.681 100.826 188.836C100.826 189.99 101.762 191.437 102.916 192.066Z" fill="#761F21"/>
<path d="M91.2427 197.378C92.3978 198.007 93.3331 197.581 93.3331 196.426C93.3331 195.271 92.3978 193.825 91.2427 193.196C90.0878 192.566 89.151 192.992 89.151 194.147C89.1509 195.302 90.0877 196.748 91.2427 197.378Z" fill="#761F21"/>
<path d="M102.916 203.741C104.071 204.37 105.008 203.944 105.008 202.789C105.008 201.635 104.071 200.188 102.916 199.558C101.762 198.929 100.826 199.355 100.826 200.51C100.826 201.665 101.762 203.111 102.916 203.741Z" fill="#761F21"/>
<path d="M97.0796 194.722C98.2347 195.351 99.1708 194.925 99.1708 193.77C99.1708 192.616 98.2346 191.169 97.0796 190.54C95.9246 189.91 94.9885 190.336 94.9885 191.491C94.9885 192.646 95.9246 194.092 97.0796 194.722Z" fill="#761F21"/>
<path d="M125.305 181.521C124.15 182.151 123.213 183.597 123.213 184.752C123.213 185.906 124.15 186.333 125.305 185.703C126.458 185.073 127.395 183.627 127.395 182.472C127.395 181.317 126.459 180.891 125.305 181.521Z" fill="#761F21"/>
<path d="M113.63 199.558C112.475 200.188 111.539 201.635 111.539 202.789C111.539 203.944 112.475 204.37 113.63 203.74C114.785 203.111 115.72 201.665 115.72 200.51C115.72 199.355 114.785 198.929 113.63 199.558Z" fill="#761F21"/>
<path d="M119.467 190.54C118.312 191.169 117.375 192.616 117.375 193.77C117.375 194.925 118.312 195.351 119.467 194.721C120.622 194.092 121.558 192.646 121.558 191.491C121.558 190.336 120.622 189.91 119.467 190.54Z" fill="#761F21"/>
<path d="M498.534 544.931L481.86 534.931C480.826 534.31 479.663 534 478.501 534C477.338 534 476.174 534.31 475.14 534.931L458.467 544.931C456.499 546.112 455.295 548.239 455.295 550.533V570.467C455.295 572.761 456.499 574.888 458.467 576.069L475.14 586.069C476.174 586.689 477.338 587 478.501 587C479.663 587 480.826 586.689 481.86 586.069L498.534 576.069C500.502 574.888 501.705 572.761 501.705 570.467V550.533C501.705 548.239 500.502 546.112 498.534 544.931ZM477.941 585.006C477.317 584.928 476.706 584.724 476.148 584.39L459.475 574.389C458.097 573.562 457.254 572.073 457.254 570.467V550.533C457.254 549.91 457.382 549.306 457.618 548.75L477.941 560.94V585.006H477.941ZM458.177 547.779C458.525 547.317 458.963 546.918 459.475 546.611L476.148 536.61C476.872 536.176 477.685 535.959 478.501 535.959C479.316 535.959 480.129 536.176 480.853 536.61L497.526 546.611C498.037 546.918 498.477 547.317 498.824 547.779L478.501 559.97L458.177 547.779ZM499.747 570.467C499.747 572.073 498.903 573.562 497.526 574.389L480.853 584.39C480.294 584.724 479.684 584.928 479.06 585.006V560.94L499.383 548.75C499.619 549.305 499.747 549.91 499.747 550.533V570.467Z" fill="#761F21"/>
<path d="M468.584 546.409C467.567 545.656 465.89 545.636 464.84 546.366C463.79 547.097 463.764 548.299 464.781 549.052C465.799 549.806 467.475 549.825 468.524 549.095C469.575 548.364 469.602 547.162 468.584 546.409Z" fill="#761F21"/>
<path d="M480.897 539.04C479.88 538.287 478.204 538.268 477.153 538.998C476.104 539.728 476.077 540.93 477.095 541.683C478.112 542.437 479.788 542.455 480.838 541.726C481.888 540.995 481.915 539.793 480.897 539.04Z" fill="#761F21"/>
<path d="M474.834 542.491C473.816 541.738 472.14 541.719 471.09 542.449C470.039 543.179 470.013 544.381 471.031 545.134C472.048 545.888 473.725 545.906 474.775 545.177C475.824 544.446 475.851 543.244 474.834 542.491Z" fill="#761F21"/>
<path d="M479.684 553.125C478.667 552.372 476.991 552.353 475.941 553.082C474.89 553.813 474.864 555.015 475.881 555.768C476.898 556.522 478.575 556.541 479.625 555.811C480.675 555.08 480.701 553.878 479.684 553.125Z" fill="#761F21"/>
<path d="M491.997 545.756C490.979 545.003 489.303 544.984 488.254 545.714C487.203 546.444 487.177 547.646 488.194 548.399C489.212 549.153 490.888 549.171 491.939 548.442C492.988 547.711 493.014 546.509 491.997 545.756Z" fill="#761F21"/>
<path d="M485.934 549.207C484.917 548.454 483.24 548.435 482.19 549.165C481.14 549.895 481.114 551.097 482.131 551.85C483.149 552.604 484.825 552.623 485.874 551.893C486.925 551.162 486.952 549.961 485.934 549.207Z" fill="#761F21"/>
<path d="M461.243 559.703C462.398 560.333 463.333 559.906 463.333 558.752C463.333 557.597 462.398 556.151 461.243 555.521C460.088 554.892 459.151 555.318 459.151 556.473C459.151 557.627 460.088 559.074 461.243 559.703Z" fill="#761F21"/>
<path d="M472.916 566.066C474.071 566.696 475.008 566.27 475.008 565.115C475.008 563.961 474.071 562.514 472.916 561.884C471.762 561.255 470.826 561.681 470.826 562.836C470.826 563.99 471.762 565.437 472.916 566.066Z" fill="#761F21"/>
<path d="M461.243 571.378C462.398 572.007 463.333 571.581 463.333 570.426C463.333 569.271 462.398 567.825 461.243 567.196C460.088 566.566 459.151 566.992 459.151 568.147C459.151 569.302 460.088 570.748 461.243 571.378Z" fill="#761F21"/>
<path d="M472.916 577.741C474.071 578.37 475.008 577.944 475.008 576.789C475.008 575.635 474.071 574.188 472.916 573.558C471.762 572.929 470.826 573.355 470.826 574.51C470.826 575.665 471.762 577.111 472.916 577.741Z" fill="#761F21"/>
<path d="M467.08 568.722C468.235 569.351 469.171 568.925 469.171 567.77C469.171 566.616 468.235 565.169 467.08 564.54C465.925 563.91 464.989 564.336 464.989 565.491C464.989 566.646 465.925 568.092 467.08 568.722Z" fill="#761F21"/>
<path d="M495.305 555.521C494.15 556.151 493.213 557.597 493.213 558.752C493.213 559.906 494.15 560.333 495.305 559.703C496.458 559.073 497.395 557.627 497.395 556.472C497.395 555.317 496.459 554.891 495.305 555.521Z" fill="#761F21"/>
<path d="M483.63 573.558C482.475 574.188 481.539 575.635 481.539 576.789C481.539 577.944 482.475 578.37 483.63 577.74C484.785 577.111 485.72 575.665 485.72 574.51C485.72 573.355 484.785 572.929 483.63 573.558Z" fill="#761F21"/>
<path d="M489.467 564.54C488.312 565.169 487.375 566.616 487.375 567.77C487.375 568.925 488.312 569.351 489.467 568.721C490.622 568.092 491.558 566.646 491.558 565.491C491.558 564.336 490.622 563.91 489.467 564.54Z" fill="#761F21"/>
<path d="M660.534 93.9315L643.86 83.9305C642.826 83.3099 641.663 83 640.501 83C639.338 83 638.174 83.3099 637.14 83.9305L620.467 93.9315C618.499 95.1122 617.295 97.2388 617.295 99.5334V119.467C617.295 121.761 618.499 123.888 620.467 125.069L637.14 135.069C638.174 135.689 639.338 136 640.501 136C641.663 136 642.826 135.689 643.86 135.069L660.534 125.069C662.502 123.888 663.705 121.761 663.705 119.467V99.5334C663.705 97.2388 662.502 95.1122 660.534 93.9315ZM639.941 134.006C639.317 133.928 638.706 133.724 638.148 133.39L621.475 123.389C620.097 122.562 619.254 121.073 619.254 119.467V99.5334C619.254 98.91 619.382 98.3055 619.618 97.7495L639.941 109.94V134.006H639.941ZM620.177 96.7794C620.525 96.3173 620.963 95.9183 621.475 95.6112L638.148 85.6102C638.872 85.1759 639.685 84.959 640.501 84.959C641.316 84.959 642.129 85.1759 642.853 85.6102L659.526 95.6112C660.037 95.9183 660.477 96.3173 660.824 96.7794L640.501 108.97L620.177 96.7794ZM661.747 119.467C661.747 121.073 660.903 122.562 659.526 123.389L642.853 133.39C642.294 133.724 641.684 133.928 641.06 134.006V109.94L661.383 97.7495C661.619 98.3054 661.747 98.91 661.747 99.5334V119.467Z" fill="#761F21"/>
<path d="M630.584 95.4089C629.567 94.6555 627.89 94.6362 626.84 95.3665C625.79 96.0969 625.764 97.2991 626.781 98.0524C627.799 98.8057 629.475 98.8245 630.524 98.0948C631.575 97.3644 631.602 96.1622 630.584 95.4089Z" fill="#761F21"/>
<path d="M642.897 88.0398C641.88 87.2866 640.204 87.2678 639.153 87.9981C638.104 88.7278 638.077 89.9301 639.095 90.6834C640.112 91.4374 641.788 91.4554 642.838 90.7265C643.888 89.9955 643.915 88.7931 642.897 88.0398Z" fill="#761F21"/>
<path d="M636.834 91.4907C635.816 90.7382 634.14 90.7187 633.09 91.449C632.039 92.1787 632.013 93.381 633.031 94.1343C634.048 94.8883 635.725 94.9063 636.775 94.1774C637.824 93.4464 637.851 92.2441 636.834 91.4907Z" fill="#761F21"/>
<path d="M641.684 102.125C640.667 101.372 638.991 101.353 637.941 102.082C636.89 102.813 636.864 104.015 637.881 104.768C638.898 105.522 640.575 105.541 641.625 104.811C642.675 104.08 642.701 102.878 641.684 102.125Z" fill="#761F21"/>
<path d="M653.997 94.7557C652.979 94.003 651.303 93.9837 650.254 94.714C649.203 95.4436 649.177 96.646 650.194 97.3993C651.212 98.1533 652.888 98.1713 653.939 97.4423C654.988 96.7113 655.014 95.5091 653.997 94.7557Z" fill="#761F21"/>
<path d="M647.934 98.2068C646.917 97.4542 645.24 97.4348 644.19 98.1651C643.14 98.8948 643.114 100.097 644.131 100.85C645.149 101.604 646.825 101.623 647.874 100.893C648.925 100.162 648.952 98.9609 647.934 98.2068Z" fill="#761F21"/>
<path d="M623.243 108.703C624.398 109.333 625.333 108.906 625.333 107.752C625.333 106.597 624.398 105.151 623.243 104.521C622.088 103.892 621.151 104.318 621.151 105.473C621.151 106.627 622.088 108.074 623.243 108.703Z" fill="#761F21"/>
<path d="M634.916 115.066C636.071 115.696 637.008 115.27 637.008 114.115C637.008 112.961 636.071 111.514 634.916 110.884C633.762 110.255 632.826 110.681 632.826 111.836C632.826 112.99 633.762 114.437 634.916 115.066Z" fill="#761F21"/>
<path d="M623.243 120.378C624.398 121.007 625.333 120.581 625.333 119.426C625.333 118.271 624.398 116.825 623.243 116.196C622.088 115.566 621.151 115.992 621.151 117.147C621.151 118.302 622.088 119.748 623.243 120.378Z" fill="#761F21"/>
<path d="M634.916 126.741C636.071 127.37 637.008 126.944 637.008 125.789C637.008 124.635 636.071 123.188 634.916 122.558C633.762 121.929 632.826 122.355 632.826 123.51C632.826 124.665 633.762 126.111 634.916 126.741Z" fill="#761F21"/>
<path d="M629.08 117.722C630.235 118.351 631.171 117.925 631.171 116.77C631.171 115.616 630.235 114.169 629.08 113.54C627.925 112.91 626.989 113.336 626.989 114.491C626.989 115.646 627.925 117.092 629.08 117.722Z" fill="#761F21"/>
<path d="M657.305 104.521C656.15 105.151 655.213 106.597 655.213 107.752C655.213 108.906 656.15 109.333 657.305 108.703C658.458 108.073 659.395 106.627 659.395 105.472C659.395 104.317 658.459 103.891 657.305 104.521Z" fill="#761F21"/>
<path d="M645.63 122.558C644.475 123.188 643.539 124.635 643.539 125.789C643.539 126.944 644.475 127.37 645.63 126.74C646.785 126.111 647.72 124.665 647.72 123.51C647.72 122.355 646.785 121.929 645.63 122.558Z" fill="#761F21"/>
<path d="M651.467 113.54C650.312 114.169 649.375 115.616 649.375 116.77C649.375 117.925 650.312 118.351 651.467 117.721C652.622 117.092 653.558 115.646 653.558 114.491C653.558 113.336 652.622 112.91 651.467 113.54Z" fill="#761F21"/>
<path d="M46.5336 789.931L29.8604 779.931C28.8264 779.31 27.663 779 26.5011 779C25.3377 779 24.1738 779.31 23.1403 779.931L6.46712 789.931C4.49908 791.112 3.29468 793.239 3.29468 795.533V815.467C3.29468 817.761 4.49908 819.888 6.46712 821.069L23.1403 831.069C24.1738 831.689 25.3377 832 26.5011 832C27.6631 832 28.8264 831.689 29.8604 831.069L46.5336 821.069C48.5016 819.888 49.7053 817.761 49.7053 815.467V795.533C49.7053 793.239 48.5016 791.112 46.5336 789.931ZM25.9409 830.006C25.3168 829.928 24.706 829.724 24.148 829.39L7.47485 819.389C6.09747 818.562 5.25381 817.073 5.25381 815.467V795.533C5.25381 794.91 5.38176 794.306 5.61798 793.75L25.941 805.94V830.006H25.9409ZM6.17666 792.779C6.52488 792.317 6.96265 791.918 7.47485 791.611L24.148 781.61C24.8721 781.176 25.6852 780.959 26.5011 780.959C27.3156 780.959 28.1287 781.176 28.8528 781.61L45.5259 791.611C46.0374 791.918 46.4766 792.317 46.824 792.779L26.5011 804.97L6.17666 792.779ZM47.747 815.467C47.747 817.073 46.9033 818.562 45.5259 819.389L28.8528 829.39C28.294 829.724 27.6839 829.928 27.0598 830.006V805.94L47.3828 793.75C47.6191 794.305 47.747 794.91 47.747 795.533V815.467Z" fill="#761F21"/>
<path d="M16.5841 791.409C15.5667 790.656 13.8905 790.636 12.8404 791.366C11.7904 792.097 11.764 793.299 12.7814 794.052C13.7988 794.806 15.4751 794.825 16.5244 794.095C17.5751 793.364 17.6015 792.162 16.5841 791.409Z" fill="#761F21"/>
<path d="M28.8973 784.04C27.8799 783.287 26.2036 783.268 25.153 783.998C24.1036 784.728 24.0771 785.93 25.0946 786.683C26.112 787.437 27.7883 787.455 28.8376 786.726C29.8883 785.995 29.9147 784.793 28.8973 784.04Z" fill="#761F21"/>
<path d="M22.8345 787.491C21.8165 786.738 20.1402 786.719 19.0901 787.449C18.0394 788.179 18.0129 789.381 19.031 790.134C20.0484 790.888 21.7247 790.906 22.7747 790.177C23.8242 789.446 23.8512 788.244 22.8345 787.491Z" fill="#761F21"/>
<path d="M27.6839 798.125C26.6665 797.372 24.9909 797.353 23.9408 798.082C22.8902 798.813 22.8638 800.015 23.8811 800.768C24.8985 801.522 26.5747 801.541 27.6255 800.811C28.6748 800.08 28.7012 798.878 27.6839 798.125Z" fill="#761F21"/>
<path d="M39.9968 790.756C38.9795 790.003 37.3032 789.984 36.2539 790.714C35.2031 791.444 35.1767 792.646 36.1942 793.399C37.2115 794.153 38.8877 794.171 39.9385 793.442C40.9879 792.711 41.0143 791.509 39.9968 790.756Z" fill="#761F21"/>
<path d="M33.9341 794.207C32.9167 793.454 31.2405 793.435 30.1898 794.165C29.1404 794.895 29.114 796.097 30.1314 796.85C31.1487 797.604 32.825 797.623 33.8743 796.893C34.9252 796.162 34.9516 794.961 33.9341 794.207Z" fill="#761F21"/>
<path d="M9.24274 804.703C10.3978 805.333 11.3331 804.906 11.3331 803.752C11.3331 802.597 10.3978 801.151 9.24274 800.521C8.08782 799.892 7.151 800.318 7.151 801.473C7.1509 802.627 8.08771 804.074 9.24274 804.703Z" fill="#761F21"/>
<path d="M20.9164 811.066C22.0715 811.696 23.0083 811.27 23.0083 810.115C23.0083 808.961 22.0715 807.514 20.9164 806.884C19.7622 806.255 18.826 806.681 18.826 807.836C18.826 808.99 19.7622 810.437 20.9164 811.066Z" fill="#761F21"/>
<path d="M9.24274 816.378C10.3978 817.007 11.3331 816.581 11.3331 815.426C11.3331 814.271 10.3978 812.825 9.24274 812.196C8.08782 811.566 7.151 811.992 7.151 813.147C7.1509 814.302 8.08771 815.748 9.24274 816.378Z" fill="#761F21"/>
<path d="M20.9164 822.741C22.0715 823.37 23.0083 822.944 23.0083 821.789C23.0083 820.635 22.0715 819.188 20.9164 818.558C19.7622 817.929 18.826 818.355 18.826 819.51C18.826 820.665 19.7622 822.111 20.9164 822.741Z" fill="#761F21"/>
<path d="M15.0796 813.722C16.2347 814.351 17.1708 813.925 17.1708 812.77C17.1708 811.616 16.2346 810.169 15.0796 809.54C13.9246 808.91 12.9885 809.336 12.9885 810.491C12.9885 811.646 13.9246 813.092 15.0796 813.722Z" fill="#761F21"/>
<path d="M43.3049 800.521C42.1498 801.151 41.213 802.597 41.213 803.752C41.213 804.906 42.1498 805.333 43.3049 804.703C44.4584 804.073 45.3953 802.627 45.3953 801.472C45.3953 800.317 44.4585 799.891 43.3049 800.521Z" fill="#761F21"/>
<path d="M31.6297 818.558C30.4747 819.188 29.5393 820.635 29.5393 821.789C29.5393 822.944 30.4747 823.37 31.6297 822.74C32.7847 822.111 33.7201 820.665 33.7201 819.51C33.7201 818.355 32.7848 817.929 31.6297 818.558Z" fill="#761F21"/>
<path d="M37.4672 809.54C36.3122 810.169 35.3755 811.616 35.3755 812.77C35.3755 813.925 36.3123 814.351 37.4672 813.721C38.6223 813.092 39.5576 811.646 39.5576 810.491C39.5576 809.336 38.6223 808.91 37.4672 809.54Z" fill="#761F21"/>
<path d="M1226.53 561.931L1209.86 551.931C1208.83 551.31 1207.66 551 1206.5 551C1205.34 551 1204.17 551.31 1203.14 551.931L1186.47 561.931C1184.5 563.112 1183.29 565.239 1183.29 567.533V587.467C1183.29 589.761 1184.5 591.888 1186.47 593.069L1203.14 603.069C1204.17 603.689 1205.34 604 1206.5 604C1207.66 604 1208.83 603.689 1209.86 603.069L1226.53 593.069C1228.5 591.888 1229.71 589.761 1229.71 587.467V567.533C1229.71 565.239 1228.5 563.112 1226.53 561.931ZM1205.94 602.006C1205.32 601.928 1204.71 601.724 1204.15 601.39L1187.47 591.389C1186.1 590.562 1185.25 589.073 1185.25 587.467V567.533C1185.25 566.91 1185.38 566.306 1185.62 565.75L1205.94 577.94V602.006H1205.94ZM1186.18 564.779C1186.52 564.317 1186.96 563.918 1187.47 563.611L1204.15 553.61C1204.87 553.176 1205.69 552.959 1206.5 552.959C1207.32 552.959 1208.13 553.176 1208.85 553.61L1225.53 563.611C1226.04 563.918 1226.48 564.317 1226.82 564.779L1206.5 576.97L1186.18 564.779ZM1227.75 587.467C1227.75 589.073 1226.9 590.562 1225.53 591.389L1208.85 601.39C1208.29 601.724 1207.68 601.928 1207.06 602.006V577.94L1227.38 565.75C1227.62 566.305 1227.75 566.91 1227.75 567.533V587.467Z" fill="#761F21"/>
<path d="M1196.58 563.409C1195.57 562.656 1193.89 562.636 1192.84 563.366C1191.79 564.097 1191.76 565.299 1192.78 566.052C1193.8 566.806 1195.48 566.825 1196.52 566.095C1197.58 565.364 1197.6 564.162 1196.58 563.409Z" fill="#761F21"/>
<path d="M1208.9 556.04C1207.88 555.287 1206.2 555.268 1205.15 555.998C1204.1 556.728 1204.08 557.93 1205.09 558.683C1206.11 559.437 1207.79 559.455 1208.84 558.726C1209.89 557.995 1209.91 556.793 1208.9 556.04Z" fill="#761F21"/>
<path d="M1202.83 559.491C1201.82 558.738 1200.14 558.719 1199.09 559.449C1198.04 560.179 1198.01 561.381 1199.03 562.134C1200.05 562.888 1201.72 562.906 1202.77 562.177C1203.82 561.446 1203.85 560.244 1202.83 559.491Z" fill="#761F21"/>
<path d="M1207.68 570.125C1206.67 569.372 1204.99 569.353 1203.94 570.082C1202.89 570.813 1202.86 572.015 1203.88 572.768C1204.9 573.522 1206.57 573.541 1207.63 572.811C1208.67 572.08 1208.7 570.878 1207.68 570.125Z" fill="#761F21"/>
<path d="M1220 562.756C1218.98 562.003 1217.3 561.984 1216.25 562.714C1215.2 563.444 1215.18 564.646 1216.19 565.399C1217.21 566.153 1218.89 566.171 1219.94 565.442C1220.99 564.711 1221.01 563.509 1220 562.756Z" fill="#761F21"/>
<path d="M1213.93 566.207C1212.92 565.454 1211.24 565.435 1210.19 566.165C1209.14 566.895 1209.11 568.097 1210.13 568.85C1211.15 569.604 1212.82 569.623 1213.87 568.893C1214.93 568.162 1214.95 566.961 1213.93 566.207Z" fill="#761F21"/>
<path d="M1189.24 576.703C1190.4 577.333 1191.33 576.906 1191.33 575.752C1191.33 574.597 1190.4 573.151 1189.24 572.521C1188.09 571.892 1187.15 572.318 1187.15 573.473C1187.15 574.627 1188.09 576.074 1189.24 576.703Z" fill="#761F21"/>
<path d="M1200.92 583.066C1202.07 583.696 1203.01 583.27 1203.01 582.115C1203.01 580.961 1202.07 579.514 1200.92 578.884C1199.76 578.255 1198.83 578.681 1198.83 579.836C1198.83 580.99 1199.76 582.437 1200.92 583.066Z" fill="#761F21"/>
<path d="M1189.24 588.378C1190.4 589.007 1191.33 588.581 1191.33 587.426C1191.33 586.271 1190.4 584.825 1189.24 584.196C1188.09 583.566 1187.15 583.992 1187.15 585.147C1187.15 586.302 1188.09 587.748 1189.24 588.378Z" fill="#761F21"/>
<path d="M1200.92 594.741C1202.07 595.37 1203.01 594.944 1203.01 593.789C1203.01 592.635 1202.07 591.188 1200.92 590.558C1199.76 589.929 1198.83 590.355 1198.83 591.51C1198.83 592.665 1199.76 594.111 1200.92 594.741Z" fill="#761F21"/>
<path d="M1195.08 585.722C1196.23 586.351 1197.17 585.925 1197.17 584.77C1197.17 583.616 1196.23 582.169 1195.08 581.54C1193.92 580.91 1192.99 581.336 1192.99 582.491C1192.99 583.646 1193.92 585.092 1195.08 585.722Z" fill="#761F21"/>
<path d="M1223.3 572.521C1222.15 573.151 1221.21 574.597 1221.21 575.752C1221.21 576.906 1222.15 577.333 1223.3 576.703C1224.46 576.073 1225.4 574.627 1225.4 573.472C1225.4 572.317 1224.46 571.891 1223.3 572.521Z" fill="#761F21"/>
<path d="M1211.63 590.558C1210.47 591.188 1209.54 592.635 1209.54 593.789C1209.54 594.944 1210.47 595.37 1211.63 594.74C1212.78 594.111 1213.72 592.665 1213.72 591.51C1213.72 590.355 1212.78 589.929 1211.63 590.558Z" fill="#761F21"/>
<path d="M1217.47 581.54C1216.31 582.169 1215.38 583.616 1215.38 584.77C1215.38 585.925 1216.31 586.351 1217.47 585.721C1218.62 585.092 1219.56 583.646 1219.56 582.491C1219.56 581.336 1218.62 580.91 1217.47 581.54Z" fill="#761F21"/>
<path d="M1084.53 63.9315L1067.86 53.9305C1066.83 53.3099 1065.66 53 1064.5 53C1063.34 53 1062.17 53.3099 1061.14 53.9305L1044.47 63.9315C1042.5 65.1122 1041.29 67.2388 1041.29 69.5334V89.4666C1041.29 91.7613 1042.5 93.8878 1044.47 95.0685L1061.14 105.069C1062.17 105.689 1063.34 106 1064.5 106C1065.66 106 1066.83 105.689 1067.86 105.069L1084.53 95.0685C1086.5 93.8878 1087.71 91.7613 1087.71 89.4666V69.5334C1087.71 67.2388 1086.5 65.1122 1084.53 63.9315ZM1063.94 104.006C1063.32 103.928 1062.71 103.724 1062.15 103.39L1045.47 93.3889C1044.1 92.5619 1043.25 91.0734 1043.25 89.4666V69.5334C1043.25 68.91 1043.38 68.3055 1043.62 67.7495L1063.94 79.9395V104.006H1063.94ZM1044.18 66.7794C1044.52 66.3173 1044.96 65.9183 1045.47 65.6112L1062.15 55.6102C1062.87 55.1759 1063.69 54.959 1064.5 54.959C1065.32 54.959 1066.13 55.1759 1066.85 55.6102L1083.53 65.6112C1084.04 65.9183 1084.48 66.3173 1084.82 66.7794L1064.5 78.9701L1044.18 66.7794ZM1085.75 89.4666C1085.75 91.0734 1084.9 92.5619 1083.53 93.3889L1066.85 103.39C1066.29 103.724 1065.68 103.928 1065.06 104.006V79.9395L1085.38 67.7495C1085.62 68.3054 1085.75 68.91 1085.75 69.5334V89.4666Z" fill="#761F21"/>
<path d="M1054.58 65.4089C1053.57 64.6555 1051.89 64.6362 1050.84 65.3665C1049.79 66.0969 1049.76 67.2991 1050.78 68.0524C1051.8 68.8057 1053.48 68.8245 1054.52 68.0948C1055.58 67.3644 1055.6 66.1622 1054.58 65.4089Z" fill="#761F21"/>
<path d="M1066.9 58.0398C1065.88 57.2866 1064.2 57.2678 1063.15 57.9981C1062.1 58.7278 1062.08 59.9301 1063.09 60.6834C1064.11 61.4374 1065.79 61.4554 1066.84 60.7265C1067.89 59.9955 1067.91 58.7931 1066.9 58.0398Z" fill="#761F21"/>
<path d="M1060.83 61.4907C1059.82 60.7382 1058.14 60.7187 1057.09 61.449C1056.04 62.1787 1056.01 63.381 1057.03 64.1343C1058.05 64.8883 1059.72 64.9063 1060.77 64.1774C1061.82 63.4464 1061.85 62.2441 1060.83 61.4907Z" fill="#761F21"/>
<path d="M1065.68 72.1249C1064.67 71.3717 1062.99 71.3528 1061.94 72.0825C1060.89 72.8129 1060.86 74.0152 1061.88 74.7684C1062.9 75.5224 1064.57 75.5405 1065.63 74.8109C1066.67 74.0804 1066.7 72.8782 1065.68 72.1249Z" fill="#761F21"/>
<path d="M1078 64.7557C1076.98 64.003 1075.3 63.9837 1074.25 64.714C1073.2 65.4436 1073.18 66.646 1074.19 67.3993C1075.21 68.1533 1076.89 68.1713 1077.94 67.4423C1078.99 66.7113 1079.01 65.5091 1078 64.7557Z" fill="#761F21"/>
<path d="M1071.93 68.2068C1070.92 67.4542 1069.24 67.4348 1068.19 68.1651C1067.14 68.8948 1067.11 70.0971 1068.13 70.8504C1069.15 71.6044 1070.82 71.6231 1071.87 70.8935C1072.93 70.1624 1072.95 68.9609 1071.93 68.2068Z" fill="#761F21"/>
<path d="M1047.24 78.7033C1048.4 79.3329 1049.33 78.9063 1049.33 77.752C1049.33 76.5969 1048.4 75.1508 1047.24 74.5212C1046.09 73.8915 1045.15 74.3176 1045.15 75.4725C1045.15 76.6268 1046.09 78.0737 1047.24 78.7033Z" fill="#761F21"/>
<path d="M1058.92 85.0662C1060.07 85.6958 1061.01 85.2698 1061.01 84.1155C1061.01 82.9606 1060.07 81.5136 1058.92 80.884C1057.76 80.2551 1056.83 80.681 1056.83 81.8362C1056.83 82.9905 1057.76 84.4366 1058.92 85.0662Z" fill="#761F21"/>
<path d="M1047.24 90.3776C1048.4 91.0066 1049.33 90.5812 1049.33 89.4263C1049.33 88.2713 1048.4 86.825 1047.24 86.1956C1046.09 85.5659 1045.15 85.9918 1045.15 87.1469C1045.15 88.3018 1046.09 89.748 1047.24 90.3776Z" fill="#761F21"/>
<path d="M1058.92 96.7405C1060.07 97.3701 1061.01 96.9441 1061.01 95.7891C1061.01 94.6348 1060.07 93.188 1058.92 92.5584C1057.76 91.9294 1056.83 92.3554 1056.83 93.5097C1056.83 94.6647 1057.76 96.1109 1058.92 96.7405Z" fill="#761F21"/>
<path d="M1053.08 87.7215C1054.23 88.3511 1055.17 87.9251 1055.17 86.7701C1055.17 85.6158 1054.23 84.169 1053.08 83.54C1051.92 82.9104 1050.99 83.3364 1050.99 84.4908C1050.99 85.6456 1051.92 87.0918 1053.08 87.7215Z" fill="#761F21"/>
<path d="M1081.3 74.521C1080.15 75.1506 1079.21 76.5968 1079.21 77.7517C1079.21 78.906 1080.15 79.3327 1081.3 78.703C1082.46 78.0734 1083.4 76.6266 1083.4 75.4723C1083.4 74.3174 1082.46 73.8913 1081.3 74.521Z" fill="#761F21"/>
<path d="M1069.63 92.5583C1068.47 93.1879 1067.54 94.6348 1067.54 95.7891C1067.54 96.9441 1068.47 97.3701 1069.63 96.7405C1070.78 96.1109 1071.72 94.6647 1071.72 93.5096C1071.72 92.3553 1070.78 91.9295 1069.63 92.5583Z" fill="#761F21"/>
<path d="M1075.47 83.5399C1074.31 84.1689 1073.38 85.6157 1073.38 86.77C1073.38 87.9251 1074.31 88.351 1075.47 87.7214C1076.62 87.0918 1077.56 85.6456 1077.56 84.4907C1077.56 83.3364 1076.62 82.9105 1075.47 83.5399Z" fill="#761F21"/>
<path d="M448.533 223.931L431.86 213.931C430.826 213.31 429.663 213 428.501 213C427.338 213 426.174 213.31 425.14 213.931L408.467 223.931C406.499 225.112 405.295 227.239 405.295 229.533V249.467C405.295 251.761 406.499 253.888 408.467 255.069L425.14 265.069C426.174 265.689 427.338 266 428.501 266C429.663 266 430.826 265.689 431.86 265.069L448.534 255.069C450.502 253.888 451.705 251.761 451.705 249.467V229.533C451.705 227.239 450.502 225.112 448.533 223.931ZM427.941 264.006C427.317 263.928 426.706 263.725 426.148 263.39L409.475 253.389C408.097 252.562 407.254 251.073 407.254 249.467V229.533C407.254 228.91 407.382 228.306 407.618 227.749L427.941 239.939V264.006ZM408.177 226.779C408.525 226.317 408.963 225.918 409.475 225.611L426.148 215.61C426.872 215.176 427.685 214.959 428.501 214.959C429.315 214.959 430.129 215.176 430.853 215.61L447.526 225.611C448.037 225.918 448.476 226.317 448.824 226.779L428.501 238.97L408.177 226.779ZM449.747 249.467C449.747 251.073 448.903 252.562 447.526 253.389L430.853 263.39C430.294 263.725 429.684 263.928 429.06 264.006V239.94L449.383 227.75C449.619 228.306 449.747 228.91 449.747 229.534V249.467H449.747Z" fill="#761F21"/>
<path d="M441.578 224.985C440.561 224.231 438.885 224.212 437.835 224.942C436.785 225.672 436.758 226.875 437.776 227.628C438.793 228.381 440.469 228.401 441.519 227.671C442.569 226.941 442.596 225.738 441.578 224.985Z" fill="#761F21"/>
<path d="M419.144 224.756C418.127 224.002 416.451 223.983 415.4 224.713C414.35 225.444 414.324 226.646 415.341 227.399C416.359 228.153 418.035 228.171 419.084 227.442C420.135 226.711 420.162 225.509 419.144 224.756Z" fill="#761F21"/>
<path d="M430.297 224.915C429.314 224.187 427.695 224.168 426.68 224.874C425.666 225.579 425.639 226.741 426.623 227.469C427.606 228.196 429.225 228.215 430.24 227.51C431.254 226.804 431.281 225.642 430.297 224.915Z" fill="#761F21"/>
<path d="M411.243 238.703C412.398 239.333 413.333 238.906 413.333 237.752C413.333 236.597 412.398 235.151 411.243 234.521C410.088 233.892 409.151 234.318 409.151 235.473C409.151 236.627 410.088 238.074 411.243 238.703Z" fill="#761F21"/>
<path d="M422.916 245.066C424.071 245.696 425.008 245.27 425.008 244.116C425.008 242.96 424.071 241.514 422.916 240.884C421.762 240.255 420.826 240.681 420.826 241.836C420.826 242.99 421.762 244.437 422.916 245.066Z" fill="#761F21"/>
<path d="M411.243 250.378C412.398 251.007 413.333 250.581 413.333 249.426C413.333 248.271 412.398 246.825 411.243 246.196C410.088 245.566 409.151 245.992 409.151 247.147C409.151 248.302 410.088 249.748 411.243 250.378Z" fill="#761F21"/>
<path d="M422.916 256.741C424.071 257.37 425.008 256.944 425.008 255.789C425.008 254.635 424.071 253.188 422.916 252.558C421.762 251.929 420.826 252.355 420.826 253.51C420.826 254.665 421.762 256.111 422.916 256.741Z" fill="#761F21"/>
<path d="M439.467 242.286C437.619 243.293 436.122 245.607 436.122 247.454C436.122 249.302 437.619 249.984 439.467 248.977C441.314 247.969 442.813 245.655 442.813 243.807C442.813 241.96 441.314 241.278 439.467 242.286Z" fill="#761F21"/>
<path d="M234.533 715.931L217.86 705.931C216.826 705.31 215.663 705 214.501 705C213.338 705 212.174 705.31 211.14 705.931L194.467 715.931C192.499 717.112 191.295 719.239 191.295 721.533V741.467C191.295 743.761 192.499 745.888 194.467 747.069L211.14 757.069C212.174 757.689 213.338 758 214.501 758C215.663 758 216.826 757.689 217.86 757.069L234.534 747.069C236.502 745.888 237.705 743.761 237.705 741.467V721.533C237.705 719.239 236.502 717.112 234.533 715.931ZM213.941 756.006C213.317 755.928 212.706 755.725 212.148 755.39L195.475 745.389C194.097 744.562 193.254 743.073 193.254 741.467V721.533C193.254 720.91 193.382 720.306 193.618 719.749L213.941 731.939V756.006ZM194.177 718.779C194.525 718.317 194.963 717.918 195.475 717.611L212.148 707.61C212.872 707.176 213.685 706.959 214.501 706.959C215.315 706.959 216.129 707.176 216.853 707.61L233.526 717.611C234.037 717.918 234.476 718.317 234.824 718.779L214.501 730.97L194.177 718.779ZM235.747 741.467C235.747 743.073 234.903 744.562 233.526 745.389L216.853 755.39C216.294 755.725 215.684 755.928 215.06 756.006V731.94L235.383 719.75C235.619 720.306 235.747 720.91 235.747 721.534V741.467H235.747Z" fill="#761F21"/>
<path d="M227.578 716.985C226.561 716.231 224.885 716.212 223.835 716.942C222.785 717.672 222.758 718.875 223.776 719.628C224.793 720.381 226.469 720.401 227.519 719.671C228.569 718.941 228.596 717.738 227.578 716.985Z" fill="#761F21"/>
<path d="M205.144 716.756C204.127 716.002 202.451 715.983 201.4 716.713C200.35 717.444 200.324 718.646 201.341 719.399C202.359 720.153 204.035 720.171 205.084 719.442C206.135 718.711 206.162 717.509 205.144 716.756Z" fill="#761F21"/>
<path d="M216.297 716.915C215.314 716.187 213.695 716.168 212.68 716.874C211.666 717.579 211.639 718.741 212.623 719.469C213.606 720.196 215.225 720.215 216.24 719.51C217.254 718.804 217.281 717.642 216.297 716.915Z" fill="#761F21"/>
<path d="M197.243 730.703C198.398 731.333 199.333 730.906 199.333 729.752C199.333 728.597 198.398 727.151 197.243 726.521C196.088 725.892 195.151 726.318 195.151 727.473C195.151 728.627 196.088 730.074 197.243 730.703Z" fill="#761F21"/>
<path d="M208.916 737.066C210.071 737.696 211.008 737.27 211.008 736.116C211.008 734.96 210.071 733.514 208.916 732.884C207.762 732.255 206.826 732.681 206.826 733.836C206.826 734.99 207.762 736.437 208.916 737.066Z" fill="#761F21"/>
<path d="M197.243 742.378C198.398 743.007 199.333 742.581 199.333 741.426C199.333 740.271 198.398 738.825 197.243 738.196C196.088 737.566 195.151 737.992 195.151 739.147C195.151 740.302 196.088 741.748 197.243 742.378Z" fill="#761F21"/>
<path d="M208.916 748.741C210.071 749.37 211.008 748.944 211.008 747.789C211.008 746.635 210.071 745.188 208.916 744.558C207.762 743.929 206.826 744.355 206.826 745.51C206.826 746.665 207.762 748.111 208.916 748.741Z" fill="#761F21"/>
<path d="M225.467 734.286C223.619 735.293 222.122 737.607 222.122 739.454C222.122 741.302 223.619 741.984 225.467 740.977C227.314 739.969 228.813 737.655 228.813 735.807C228.813 733.96 227.314 733.278 225.467 734.286Z" fill="#761F21"/>
<path d="M818.533 267.931L801.86 257.931C800.826 257.31 799.663 257 798.501 257C797.338 257 796.174 257.31 795.14 257.931L778.467 267.931C776.499 269.112 775.295 271.239 775.295 273.533V293.467C775.295 295.761 776.499 297.888 778.467 299.069L795.14 309.069C796.174 309.689 797.338 310 798.501 310C799.663 310 800.826 309.689 801.86 309.069L818.534 299.069C820.502 297.888 821.705 295.761 821.705 293.467V273.533C821.705 271.239 820.502 269.112 818.533 267.931ZM797.941 308.006C797.317 307.928 796.706 307.725 796.148 307.39L779.475 297.389C778.097 296.562 777.254 295.073 777.254 293.467V273.533C777.254 272.91 777.382 272.306 777.618 271.749L797.941 283.939V308.006ZM778.177 270.779C778.525 270.317 778.963 269.918 779.475 269.611L796.148 259.61C796.872 259.176 797.685 258.959 798.501 258.959C799.315 258.959 800.129 259.176 800.853 259.61L817.526 269.611C818.037 269.918 818.476 270.317 818.824 270.779L798.501 282.97L778.177 270.779ZM819.747 293.467C819.747 295.073 818.903 296.562 817.526 297.389L800.853 307.39C800.294 307.725 799.684 307.928 799.06 308.006V283.94L819.383 271.75C819.619 272.306 819.747 272.91 819.747 273.534V293.467H819.747Z" fill="#761F21"/>
<path d="M811.578 268.985C810.561 268.231 808.885 268.212 807.835 268.942C806.785 269.672 806.758 270.875 807.776 271.628C808.793 272.381 810.469 272.401 811.519 271.671C812.569 270.941 812.596 269.738 811.578 268.985Z" fill="#761F21"/>
<path d="M789.144 268.756C788.127 268.002 786.451 267.983 785.4 268.713C784.35 269.444 784.324 270.646 785.341 271.399C786.359 272.153 788.035 272.171 789.084 271.442C790.135 270.711 790.162 269.509 789.144 268.756Z" fill="#761F21"/>
<path d="M800.297 268.915C799.314 268.187 797.695 268.168 796.68 268.874C795.666 269.579 795.639 270.741 796.623 271.469C797.606 272.196 799.225 272.215 800.24 271.51C801.254 270.804 801.281 269.642 800.297 268.915Z" fill="#761F21"/>
<path d="M781.243 282.703C782.398 283.333 783.333 282.906 783.333 281.752C783.333 280.597 782.398 279.151 781.243 278.521C780.088 277.892 779.151 278.318 779.151 279.473C779.151 280.627 780.088 282.074 781.243 282.703Z" fill="#761F21"/>
<path d="M792.916 289.066C794.071 289.696 795.008 289.27 795.008 288.116C795.008 286.96 794.071 285.514 792.916 284.884C791.762 284.255 790.826 284.681 790.826 285.836C790.826 286.99 791.762 288.437 792.916 289.066Z" fill="#761F21"/>
<path d="M781.243 294.378C782.398 295.007 783.333 294.581 783.333 293.426C783.333 292.271 782.398 290.825 781.243 290.196C780.088 289.566 779.151 289.992 779.151 291.147C779.151 292.302 780.088 293.748 781.243 294.378Z" fill="#761F21"/>
<path d="M792.916 300.741C794.071 301.37 795.008 300.944 795.008 299.789C795.008 298.635 794.071 297.188 792.916 296.558C791.762 295.929 790.826 296.355 790.826 297.51C790.826 298.665 791.762 300.111 792.916 300.741Z" fill="#761F21"/>
<path d="M809.467 286.286C807.619 287.293 806.122 289.607 806.122 291.454C806.122 293.302 807.619 293.984 809.467 292.977C811.314 291.969 812.813 289.655 812.813 287.807C812.813 285.96 811.314 285.278 809.467 286.286Z" fill="#761F21"/>
<path d="M872.533 623.931L855.86 613.931C854.826 613.31 853.663 613 852.501 613C851.338 613 850.174 613.31 849.14 613.931L832.467 623.931C830.499 625.112 829.295 627.239 829.295 629.533V649.467C829.295 651.761 830.499 653.888 832.467 655.069L849.14 665.069C850.174 665.689 851.338 666 852.501 666C853.663 666 854.826 665.689 855.86 665.069L872.534 655.069C874.502 653.888 875.705 651.761 875.705 649.467V629.533C875.705 627.239 874.502 625.112 872.533 623.931ZM851.941 664.006C851.317 663.928 850.706 663.725 850.148 663.39L833.475 653.389C832.097 652.562 831.254 651.073 831.254 649.467V629.533C831.254 628.91 831.382 628.306 831.618 627.749L851.941 639.939V664.006ZM832.177 626.779C832.525 626.317 832.963 625.918 833.475 625.611L850.148 615.61C850.872 615.176 851.685 614.959 852.501 614.959C853.315 614.959 854.129 615.176 854.853 615.61L871.526 625.611C872.037 625.918 872.476 626.317 872.824 626.779L852.501 638.97L832.177 626.779ZM873.747 649.467C873.747 651.073 872.903 652.562 871.526 653.389L854.853 663.39C854.294 663.725 853.684 663.928 853.06 664.006V639.94L873.383 627.75C873.619 628.306 873.747 628.91 873.747 629.534V649.467H873.747Z" fill="#761F21"/>
<path d="M865.578 624.985C864.561 624.231 862.885 624.212 861.835 624.942C860.785 625.672 860.758 626.875 861.776 627.628C862.793 628.381 864.469 628.401 865.519 627.671C866.569 626.941 866.596 625.738 865.578 624.985Z" fill="#761F21"/>
<path d="M843.144 624.756C842.127 624.002 840.451 623.983 839.4 624.713C838.35 625.444 838.324 626.646 839.341 627.399C840.359 628.153 842.035 628.171 843.084 627.442C844.135 626.711 844.162 625.509 843.144 624.756Z" fill="#761F21"/>
<path d="M854.297 624.915C853.314 624.187 851.695 624.168 850.68 624.874C849.666 625.579 849.639 626.741 850.623 627.469C851.606 628.196 853.225 628.215 854.24 627.51C855.254 626.804 855.281 625.642 854.297 624.915Z" fill="#761F21"/>
<path d="M835.243 638.703C836.398 639.333 837.333 638.906 837.333 637.752C837.333 636.597 836.398 635.151 835.243 634.521C834.088 633.892 833.151 634.318 833.151 635.473C833.151 636.627 834.088 638.074 835.243 638.703Z" fill="#761F21"/>
<path d="M846.916 645.066C848.071 645.696 849.008 645.27 849.008 644.116C849.008 642.96 848.071 641.514 846.916 640.884C845.762 640.255 844.826 640.681 844.826 641.836C844.826 642.99 845.762 644.437 846.916 645.066Z" fill="#761F21"/>
<path d="M835.243 650.378C836.398 651.007 837.333 650.581 837.333 649.426C837.333 648.271 836.398 646.825 835.243 646.196C834.088 645.566 833.151 645.992 833.151 647.147C833.151 648.302 834.088 649.748 835.243 650.378Z" fill="#761F21"/>
<path d="M846.916 656.741C848.071 657.37 849.008 656.944 849.008 655.789C849.008 654.635 848.071 653.188 846.916 652.558C845.762 651.929 844.826 652.355 844.826 653.51C844.826 654.665 845.762 656.111 846.916 656.741Z" fill="#761F21"/>
<path d="M863.467 642.286C861.619 643.293 860.122 645.607 860.122 647.454C860.122 649.302 861.619 649.984 863.467 648.977C865.314 647.969 866.813 645.655 866.813 643.807C866.813 641.96 865.314 641.278 863.467 642.286Z" fill="#761F21"/>
<path d="M1191.53 240.931L1174.86 230.931C1173.83 230.31 1172.66 230 1171.5 230C1170.34 230 1169.17 230.31 1168.14 230.931L1151.47 240.931C1149.5 242.112 1148.29 244.239 1148.29 246.533V266.467C1148.29 268.761 1149.5 270.888 1151.47 272.069L1168.14 282.069C1169.17 282.689 1170.34 283 1171.5 283C1172.66 283 1173.83 282.689 1174.86 282.069L1191.53 272.069C1193.5 270.888 1194.71 268.761 1194.71 266.467V246.533C1194.71 244.239 1193.5 242.112 1191.53 240.931ZM1170.94 281.006C1170.32 280.928 1169.71 280.725 1169.15 280.39L1152.47 270.389C1151.1 269.562 1150.25 268.073 1150.25 266.467V246.533C1150.25 245.91 1150.38 245.306 1150.62 244.749L1170.94 256.939V281.006ZM1151.18 243.779C1151.52 243.317 1151.96 242.918 1152.47 242.611L1169.15 232.61C1169.87 232.176 1170.69 231.959 1171.5 231.959C1172.32 231.959 1173.13 232.176 1173.85 232.61L1190.53 242.611C1191.04 242.918 1191.48 243.317 1191.82 243.779L1171.5 255.97L1151.18 243.779ZM1192.75 266.467C1192.75 268.073 1191.9 269.562 1190.53 270.389L1173.85 280.39C1173.29 280.725 1172.68 280.928 1172.06 281.006V256.94L1192.38 244.75C1192.62 245.306 1192.75 245.91 1192.75 246.534V266.467H1192.75Z" fill="#761F21"/>
<path d="M1184.58 241.985C1183.56 241.231 1181.88 241.212 1180.84 241.942C1179.78 242.672 1179.76 243.875 1180.78 244.628C1181.79 245.381 1183.47 245.401 1184.52 244.671C1185.57 243.941 1185.6 242.738 1184.58 241.985Z" fill="#761F21"/>
<path d="M1162.14 241.756C1161.13 241.002 1159.45 240.983 1158.4 241.713C1157.35 242.444 1157.32 243.646 1158.34 244.399C1159.36 245.153 1161.04 245.171 1162.08 244.442C1163.14 243.711 1163.16 242.509 1162.14 241.756Z" fill="#761F21"/>
<path d="M1173.3 241.915C1172.31 241.187 1170.69 241.168 1169.68 241.874C1168.67 242.579 1168.64 243.741 1169.62 244.469C1170.61 245.196 1172.23 245.215 1173.24 244.51C1174.25 243.804 1174.28 242.642 1173.3 241.915Z" fill="#761F21"/>
<path d="M1154.24 255.703C1155.4 256.333 1156.33 255.906 1156.33 254.752C1156.33 253.597 1155.4 252.151 1154.24 251.521C1153.09 250.892 1152.15 251.318 1152.15 252.473C1152.15 253.627 1153.09 255.074 1154.24 255.703Z" fill="#761F21"/>
<path d="M1165.92 262.066C1167.07 262.696 1168.01 262.27 1168.01 261.116C1168.01 259.96 1167.07 258.514 1165.92 257.884C1164.76 257.255 1163.83 257.681 1163.83 258.836C1163.83 259.99 1164.76 261.437 1165.92 262.066Z" fill="#761F21"/>
<path d="M1154.24 267.378C1155.4 268.007 1156.33 267.581 1156.33 266.426C1156.33 265.271 1155.4 263.825 1154.24 263.196C1153.09 262.566 1152.15 262.992 1152.15 264.147C1152.15 265.302 1153.09 266.748 1154.24 267.378Z" fill="#761F21"/>
<path d="M1165.92 273.741C1167.07 274.37 1168.01 273.944 1168.01 272.789C1168.01 271.635 1167.07 270.188 1165.92 269.558C1164.76 268.929 1163.83 269.355 1163.83 270.51C1163.83 271.665 1164.76 273.111 1165.92 273.741Z" fill="#761F21"/>
<path d="M1182.47 259.286C1180.62 260.293 1179.12 262.607 1179.12 264.454C1179.12 266.302 1180.62 266.984 1182.47 265.977C1184.31 264.969 1185.81 262.655 1185.81 260.807C1185.81 258.96 1184.31 258.278 1182.47 259.286Z" fill="#761F21"/>
</g>
</g>
<defs>
<clipPath id="clip0_89_2">
<rect width="1280" height="832" fill="white"/>
</clipPath>
</defs>
</svg>
