<svg width="231" height="241" viewBox="0 0 231 241" fill="none" xmlns="http://www.w3.org/2000/svg">
<path d="M165 93C165 106.807 157.837 118 149 118C140.163 118 133 106.807 133 93C133 79.1928 140.163 68 149 68C157.837 68 165 79.1928 165 93Z" fill="#504141"/>
<path d="M83 118C91.8366 118 99 106.807 99 93C99 79.1929 91.8366 68 83 68C74.1634 68 67 79.1929 67 93C67 106.807 74.1634 118 83 118Z" fill="#504141"/>
<path d="M225.833 209.28V123.727C225.833 58.156 176.398 5 115.417 5C54.4352 5 5 58.156 5 123.727V209.28C5 224.521 19.9171 234.435 32.5953 227.618C42.8427 222.109 55.0497 222.926 64.5824 229.76C75.3063 237.446 89.2771 237.446 100.001 229.76L103.895 226.968C110.872 221.967 119.961 221.967 126.939 226.968L130.832 229.76C141.557 237.446 155.527 237.446 166.251 229.76C175.784 222.926 187.99 222.109 198.238 227.618C210.916 234.435 225.833 224.521 225.833 209.28Z" stroke="#504141" stroke-width="10"/>
</svg>
